<svg xmlns="http://www.w3.org/2000/svg" xmlns:xlink="http://www.w3.org/1999/xlink" viewBox="0 0 16 16" width="16" height="16" style="width: 16px; height: 16px;"><path d="M6.340090000000001 2.208333333333333C7.0778333333333325 0.93055 8.922149999999998 0.9305566666666667 9.659816666666666 2.208333333333333L14.711699999999997 10.958333333333332C15.449366666666666 12.236083333333335 14.527200000000002 13.833333333333332 13.0518 13.833333333333332L2.9481566666666668 13.833333333333332C1.4727066666666666 13.833333333333332 0.5505566666666666 12.236083333333335 1.2882733333333334 10.958333333333332L6.340090000000001 2.208333333333333zM8 5.291666666666666C7.585766666666665 5.291666666666666 7.25 5.627456666666667 7.25 6.041666666666666L7.25 8.75C7.25 9.164233333333334 7.585766666666665 9.5 8 9.5C8.414233333333334 9.5 8.75 9.164233333333334 8.75 8.75L8.75 6.041666666666666C8.75 5.627456666666667 8.414233333333334 5.291666666666666 8 5.291666666666666zM8.75 10.625C8.75 10.210766666666665 8.414233333333334 9.875 8 9.875C7.585766666666665 9.875 7.25 10.210766666666665 7.25 10.625L7.25 10.75C7.25 11.164233333333332 7.585766666666665 11.5 8 11.5C8.414233333333334 11.5 8.75 11.164233333333332 8.75 10.75L8.75 10.625z" fill="#D97607"></path></svg>