<svg xmlns="http://www.w3.org/2000/svg" viewBox="0 0 22 22" id="bpx-svg-sprite-setting"><circle cx="11" cy="11" r="2" fill="#FFFFFF"/><path d="M19.164 8.861L17.6 8.6a6.978 6.978 0 00-1.186-2.099l.574-1.533a1 1 0 00-.436-1.217l-1.997-1.153a1.001 1.001 0 00-1.272.23l-1.008 1.225a7.04 7.04 0 00-2.55.001L8.716 2.829a1 1 0 00-1.272-.23L5.447 3.751a1 1 0 00-.436 1.217l.574 1.533A6.997 6.997 0 004.4 8.6l-1.564.261A.999.999 0 002 9.847v2.306c0 .489.353.906.836.986l1.613.269a7 7 0 001.228 2.075l-.558 1.487a1 1 0 00.436 1.217l1.997 1.153c.423.244.961.147 1.272-.23l1.04-1.263a7.089 7.089 0 002.272 0l1.04 1.263a1 1 0 001.272.23l1.997-1.153a1 1 0 00.436-1.217l-.557-1.487c.521-.61.94-1.31 1.228-2.075l1.613-.269a.999.999 0 00.835-.986V9.847a.999.999 0 00-.836-.986zM11 15a4 4 0 110-8 4 4 0 010 8z" fill="#FFFFFF"/></svg>