<svg xmlns="http://www.w3.org/2000/svg" viewBox="0 0 24 24" id="bpx-svg-sprite-coin">
    <path fill="#61666D"
          d="M12 .182C18.527.182 23.818 5.473 23.818 12A11.818 11.818 0 0112 23.818C5.473 23.818.182 18.527.182 12 .182 5.473 5.473.182 12 .182zm3.658 6.753a.844.844 0 100-1.688H8.342a.844.844 0 000 1.688h2.814v1.44a5.335 5.335 0 00-5.065 5.313v1.126a.844.844 0 001.688 0v-1.126a3.647 3.647 0 013.377-3.624v7.879a.844.844 0 101.688 0v-7.879c1.9.141 3.37 1.72 3.377 3.624v1.126a.844.844 0 001.688 0v-1.126a5.335 5.335 0 00-5.065-5.312v-1.44z"
    />
</svg>