<svg xmlns="http://www.w3.org/2000/svg" viewBox="0 0 28 28" id="bpx-svg-sprite-replay"><path d="M14.158 6.212c-4.404 0-8.06 3.656-8.06 8.06s3.656 8.06 8.06 8.06c2.806 0 5.318-1.414 6.859-3.717.195-.392.708-.734 1.132-.734.765 0 1.413.594 1.413 1.413 0 .171-.033.307-.093.458a.605.605 0 00-.021.145l-.079.123c-1.981 3.096-5.382 5.026-9.096 5.026A10.728 10.728 0 013.5 14.273 10.73 10.73 0 0114.273 3.5c2.591 0 5.021.919 6.921 2.532v-.549c0-.733.564-1.299 1.297-1.299a1.28 1.28 0 011.299 1.299v3.996a1.28 1.28 0 01-1.299 1.299h-3.996a1.278 1.278 0 01-1.297-1.299c0-.783.472-1.413 1.297-1.413h.787c-1.46-1.179-3.26-1.854-5.124-1.854z" fill="#fff"/></svg>