<svg xmlns="http://www.w3.org/2000/svg" viewBox="0 0 24 24" id="bpx-svg-sprite-danmu-switch-off">
    <path fill-rule="evenodd" clip-rule="evenodd" d="M7.087 3.392L8.28 5.186c-.735.02-1.518.044-2.35.073a3.712 3.712 0 00-3.543 3.184c-.162 1.13-.242 2.51-.242 4.141 0 1.955.115 3.643.347 5.068a3.712 3.712 0 003.48 3.111c1.9.094 4.365.141 6.555.141a.687.687 0 100-1.375c-2.168 0-4.61-.046-6.486-.139a2.338 2.338 0 01-2.192-1.96c-.219-1.344-.33-2.96-.33-4.846 0-1.57.077-2.887.229-3.946A2.337 2.337 0 015.98 6.633c2.423-.086 4.433-.13 6.028-.131 1.596.002 3.606.045 6.029.131 1.13.04 2.07.884 2.23 2.005.153 1.059.206 2.451.206 4.022a.687.687 0 101.375 0c0-1.632-.057-3.087-.219-4.217a3.712 3.712 0 00-3.544-3.184c-.942-.033-1.822-.06-2.641-.081l1.262-1.757a1.008 1.008 0 00-1.637-1.177l-1.907 2.653a1.012 1.012 0 00-.126.236l-.908-.006H11.889c-.393.001-.81.005-1.25.01a1.008 1.008 0 00-.107-.21L8.765 2.273a1.008 1.008 0 00-1.678 1.118zM11.2 9.597h1.32a8.454 8.454 0 00-.825-1.364l1.045-.352c.308.44.583.902.814 1.408l-.693.308h1.518c.308-.56.572-1.166.814-1.804l1.09.385a8.59 8.59 0 01-.749 1.42h1.276v3.44a5.01 5.01 0 00-3.575 3.115h-2.43v-1.078h2.617v-.847h-2.222v-4.63zm-2.706 2.08l-.154 1.484h2.2c0 1.892-.066 3.157-.176 3.795-.132.638-.693.99-1.694 1.056-.267 0-.533-.019-.818-.04l-.062-.004-.297-1.067c.286.033.594.055.902.055.55 0 .858-.176.935-.528.077-.352.121-1.11.121-2.277H7.175l.308-3.454h1.86v-1.43H7.273v-.979h3.201v3.388h-1.98zm7.304.736v.858h-1.254v-.858H15.8zm-2.376.858v-.858h-1.199v.858h1.2zm0-1.804h-1.199v-.902h1.2v.902zm1.122-.902v.902H15.8v-.902h-1.254zm7.517 7.497a4 4 0 11-8 0 4 4 0 018 0zm-6.736 0a2.737 2.737 0 004.148 2.345l-3.757-3.757a2.724 2.724 0 00-.391 1.412zm5.081 1.412a2.737 2.737 0 00-3.758-3.757l3.758 3.757z" fill="#fff"/>
</svg>