<svg xmlns="http://www.w3.org/2000/svg" viewBox="0 0 22 22" id="bpx-svg-sprite-fullpage"><path d="M18 4H4a2 2 0 00-2 2v10a2 2 0 002 2h14a2 2 0 002-2V6a2 2 0 00-2-2zM8 15.5a.5.5 0 01-.5.5h-3a.5.5 0 01-.5-.5v-3a.5.5 0 01.5-.5h1a.5.5 0 01.5.5V14h1.5a.5.5 0 01.5.5v1zm0-8a.5.5 0 01-.5.5H6v1.5a.5.5 0 01-.5.5h-1a.5.5 0 01-.5-.5v-3a.5.5 0 01.5-.5h3a.5.5 0 01.5.5v1zm10 8a.5.5 0 01-.5.5h-3a.5.5 0 01-.5-.5v-1a.5.5 0 01.5-.5H16v-1.5a.5.5 0 01.5-.5h1a.5.5 0 01.5.5v3zm0-6a.5.5 0 01-.5.5h-1a.5.5 0 01-.5-.5V8h-1.5a.5.5 0 01-.5-.5v-1a.5.5 0 01.5-.5h3a.5.5 0 01.5.5v3z" fill="#61666D"/></svg>