<svg xmlns="http://www.w3.org/2000/svg" viewBox="0 0 24 24" id="bpx-svg-sprite-collection">
    <path fill="#FF6699" d="M17.992 7.2c-1.098-.17-2.11-.93-2.532-1.945l-1.941-4.059c-.59-1.352-2.447-1.352-3.122 0L8.54 5.256C8.034 6.27 7.106 7.03 6.008 7.2l-4.388.676c-1.35.17-1.94 1.86-.928 2.875l3.291 3.383c.76.76 1.097 1.86.928 2.959l-.759 4.735c-.253 1.438 1.266 2.452 2.532 1.776l3.713-2.03a3.272 3.272 0 013.29 0l3.714 2.03c1.266.676 2.7-.338 2.531-1.776l-.843-4.735c-.17-1.1.168-2.198.928-2.96l3.29-3.382c1.014-1.014.423-2.706-.927-2.875L17.992 7.2z" fill-rule="nonzero"/>
</svg>