<svg xmlns="http://www.w3.org/2000/svg" viewBox="0 0 24 24" id="bpx-svg-sprite-danmu-switch-on">
    <path fill-rule="evenodd" clip-rule="evenodd" d="M8.281 5.186L7.087 3.392a1.008 1.008 0 011.678-1.118l1.767 2.652c.045.068.08.139.107.211.478-.006.928-.01 1.35-.01h.13c.292 0 .598.002.917.005.03-.082.073-.16.126-.235l1.907-2.653a1.008 1.008 0 011.637 1.177l-1.26 1.755c.844.02 1.754.048 2.73.083 1.797.063 3.2 1.47 3.455 3.25.085.596.127 2.136.157 3.268.01.333.017.631.025.86a.688.688 0 01-1.374.047c-.008-.23-.016-.536-.025-.88-.028-1.091-.066-2.554-.144-3.1-.16-1.12-1.01-2.031-2.142-2.071-2.446-.086-4.47-.13-6.074-.131a180.99 180.99 0 00-6.074.131A2.337 2.337 0 003.75 8.638c-.152 1.059-.228 2.375-.228 3.946 0 1.885.11 3.502.329 4.847a2.338 2.338 0 002.192 1.96c1.875.092 3.262.138 5.43.138a.687.687 0 110 1.375c-2.19 0-3.599-.047-5.498-.14a3.712 3.712 0 01-3.481-3.112c-.232-1.425-.347-3.114-.347-5.068 0-1.631.08-3.01.242-4.141a3.712 3.712 0 013.544-3.184c.83-.03 1.614-.054 2.35-.073zm4.23 4.417h-1.32v4.63h2.221v.848h-2.618v1.078h2.618l.003.678c.36.026.714.162 1.01.407h.11v-1.085h2.694V15.08h-2.695v-.847H16.8V9.603h-1.276a8.59 8.59 0 00.748-1.42L15.183 7.8a14.232 14.232 0 01-.814 1.804h-1.518l.693-.308a8.862 8.862 0 00-.814-1.408l-1.045.352c.297.396.572.847.825 1.364zm-4.18 3.564l.153-1.485h1.98V8.294h-3.2v.979H9.33v1.43H7.472l-.308 3.454h2.277c0 1.166-.044 1.925-.12 2.277-.078.352-.386.528-.936.528-.308 0-.616-.022-.902-.055l.297 1.067.062.004c.285.02.552.04.818.04 1.001-.066 1.562-.418 1.694-1.056.11-.638.176-1.903.176-3.795h-2.2zm7.457.11v-.858h-1.254v.858h1.254zm-2.376-.858v.858h-1.199v-.858h1.2zm-1.199-.946h1.2v-.902h-1.2v.902zm2.321 0v-.902h1.254v.902h-1.254z" fill="#FFFFFF"/>
    <path d="M21.62 14.87a.75.75 0 011.183.915l-.068.088-5.804 6.498a.75.75 0 01-1.016.093l-.08-.071-2.956-3.035a.75.75 0 01.992-1.12l.083.074 2.397 2.46 5.269-5.902z" fill="#FF6699"/>
</svg>