<svg xmlns="http://www.w3.org/2000/svg" viewBox="0 0 24 24" id="bpx-svg-sprite-danmu-setting"><path fill-rule="evenodd" clip-rule="evenodd" d="M15.432 5.177l1.272-1.77a.998.998 0 10-1.621-1.165l-1.888 2.626a1 1 0 00-.136.265c-.373-.004-.727-.006-1.063-.006h-.027-.002c-.415 0-.858.003-1.329.009a1 1 0 00-.106-.21L8.782 2.3a.998.998 0 10-1.661 1.107l1.182 1.775c-.756.02-1.564.045-2.425.076C4.1 5.32 2.656 6.719 2.404 8.48c-.16 1.12-.24 2.485-.24 4.1 0 1.935.114 3.606.344 5.017.278 1.71 1.724 3.081 3.455 3.167 1.478.073 3.017.068 4.661.062.448-.001.905-.003 1.37-.003a.68.68 0 100-1.361c-.468 0-.927.001-1.378.003-1.618.006-3.133.011-4.585-.06-1.09-.055-2.004-.95-2.18-2.027-.216-1.332-.325-2.932-.325-4.798 0-1.555.075-2.859.226-3.907.158-1.11 1.055-2.016 2.174-2.056a178.16 178.16 0 016.055-.13c1.594 0 3.612.044 6.055.13 1.12.04 2.05.876 2.21 1.985.15 1.048.178 1.545.178 3.1a.68.68 0 101.361 0c0-1.615-.032-2.174-.192-3.293a3.675 3.675 0 00-3.509-3.152c-.947-.034-1.83-.06-2.652-.081zm-4.207 4.406h1.307a8.367 8.367 0 00-.817-1.35l1.034-.349c.305.436.578.893.806 1.394l-.686.305h1.503c.305-.555.566-1.154.806-1.786l1.078.381a8.5 8.5 0 01-.74 1.405h1.263v2.756h-1.553c-.15 0-.296.026-.433.074h-.235v.11c-.2.12-.369.295-.482.51l-.651 1.233v-.04h-2.2V9.583zm1.767 5.503h-2.16v1.067h1.596l.564-1.067zm-4.506-3.425l-.152 1.562h2.178c0 1.873-.066 3.125-.175 3.757-.13.632-.686.98-1.677 1.046-.264 0-.528-.02-.81-.04l-.061-.004-.294-1.056c.283.032.588.054.893.054.544 0 .85-.174.926-.523.076-.348.12-1.1.12-2.254H7.178l.305-3.511h1.84V9.257H7.278v-.969h3.17v3.373H8.485zm4.937 1.61v-.849h-1.187v.85h1.187zm0-1.804h-1.187v-.893h1.187v.893zm1.135-.885v.893h1.241v-.893h-1.241zm1.615 3.023a1.26 1.26 0 00-1.087.627l-1.742 3a1.26 1.26 0 00-.002 1.263l1.722 2.982c.226.39.643.631 1.094.63l4.003-.009a1.26 1.26 0 001.086-.627l1.743-3a1.26 1.26 0 00.001-1.264l-1.721-2.981a1.26 1.26 0 00-1.094-.63l-4.003.009zm-.314 1.888a1.26 1.26 0 011.079-.614l2.524-.005c.446-.001.86.233 1.087.616l1.033 1.74a1.26 1.26 0 010 1.29l-1.057 1.771a1.26 1.26 0 01-1.08.615l-2.523.006a1.26 1.26 0 01-1.087-.618l-1.034-1.745a1.26 1.26 0 01.002-1.288l1.055-1.768zm2.303 3.836a1.4 1.4 0 100-2.8 1.4 1.4 0 000 2.8z" fill="#fff"/></svg>