<?xml version="1.0" encoding="utf-8"?>
<svg viewBox="0 0 24 24" id="bpx-svg-sprite-delete" width="24px" height="24px" xmlns="http://www.w3.org/2000/svg">
  <path d="M 8.824 16.471 C 8.824 17.297 9.717 17.814 10.434 17.401 C 10.767 17.209 10.97 16.855 10.97 16.471 L 10.97 10.116 C 10.969 9.499 10.509 8.979 9.897 8.904 C 9.297 9.004 8.851 9.509 8.824 10.115 L 8.824 16.469 L 8.824 16.471 Z M 13.118 16.471 C 13.118 17.065 13.598 17.545 14.191 17.545 C 14.799 17.585 15.304 17.079 15.264 16.471 L 15.264 10.116 C 15.279 9.491 14.812 8.959 14.191 8.892 C 13.588 8.993 13.139 9.504 13.118 10.116 L 13.118 16.471 Z M 19.622 7.732 L 18.366 7.732 L 18.366 18.682 C 18.44 19.646 17.72 20.487 16.756 20.561 L 7.545 20.561 C 6.454 20.661 5.533 19.764 5.604 18.671 L 5.604 7.732 L 4.412 7.732 C 3.866 7.672 3.452 7.209 3.457 6.659 C 3.387 6.136 3.755 5.655 4.277 5.586 L 8.824 5.586 L 8.824 4.426 C 8.732 3.861 9.21 3.367 9.778 3.439 L 14.19 3.439 C 14.743 3.371 15.212 3.841 15.145 4.394 L 15.145 5.586 L 19.557 5.586 C 20.147 5.561 20.618 6.073 20.545 6.659 C 20.55 7.198 20.155 7.656 19.621 7.732 L 19.622 7.732 Z" fill="#61666D" style=""/>
</svg>