<?xml version="1.0" encoding="utf-8"?>
<svg viewBox="0 0 500 500" xmlns="http://www.w3.org/2000/svg" xmlns:bx="https://boxy-svg.com">
  <defs>
    <linearGradient gradientUnits="userSpaceOnUse" x1="354.446" y1="-0.905" x2="354.446" y2="499.825" id="gradient-0" gradientTransform="matrix(1, 0, 0, 1, -103.930336, 1.04897)">
      <stop offset="0" style="stop-color: rgba(255, 99, 151, 1)"/>
      <stop offset="1" style="stop-color: rgb(255, 56, 122);"/>
    </linearGradient>
  </defs>
  <rect x="0.151" y="0.144" width="500.73" height="500.73" style="stroke: rgb(0, 0, 0); stroke-width: 0px; paint-order: fill; fill-rule: nonzero; fill: url(#gradient-0);"/>
  <path style="fill: rgb(216, 216, 216); opacity: 0.2; stroke-width: 0px; stroke: rgb(255, 117, 161); stroke-linejoin: round; stroke-linecap: round;" d="M 292.163 142.664 L 361.138 394.486 C 353.337 397.408 337.053 389.473 335.38 377.943 L 329.986 361.281 L 282.747 174.783 C 276.61 167.299 271.389 163.775 263.951 162.512 C 256.738 162.302 251.822 161.546 237.766 164.006 C 228.828 166.312 223.978 172.443 222.658 178.088 L 171.544 377.58 C 167.717 389.182 155.061 397.617 144.179 394.572 L 213.976 142.791 L 292.163 142.664 Z M 194.943 136.016 L 123.942 389.005 L 74.731 372.074 C 59.532 363.796 39.985 335.757 47.763 311.116 L 100.622 142.928 C 107.006 118.178 135.835 115.971 150.017 119.665 L 194.943 136.016 Z M 351.928 121.284 C 382.477 114.026 399.899 125.27 405.399 141.26 L 457.762 310.539 C 464.055 329.454 451.888 364.287 433.024 371.151 L 381.917 389.119 L 310.628 136.424 L 351.928 121.284 Z M 82.908 132.968 L 29.24 304.44 C 22.708 322.465 21.627 364.855 67.304 390.271 L 135.1 412.4 C 175.101 422.604 188.382 393.385 191.446 382.638 L 240.638 186.662 C 248.273 177.16 261.06 178.731 267.93 185.63 L 313.953 381.019 C 319.756 405.388 338.913 416.975 367.537 414.222 L 441.287 389.623 C 460.125 383.624 471.738 361.848 476.346 345.929 C 480.035 333.183 482.091 324.405 476.609 301.86 L 424.554 134.522 C 416.5 117.936 394.214 85.249 336.366 105.682 L 290.476 122.609 L 214.614 122.032 L 165.179 103.247 C 128.339 92.665 94.848 100.018 82.908 132.968 Z"/>
  <path d="M 137.087 176.008 m -24.827 0 a 24.827 24.827 0 1 0 49.654 0 a 24.827 24.827 0 1 0 -49.654 0 Z M 137.087 176.008 m -15.909 0 a 15.909 15.909 0 0 1 31.818 0 a 15.909 15.909 0 0 1 -31.818 0 Z" style="paint-order: fill; stroke-width: 11px; stroke-linecap: round; stroke-linejoin: round; stroke: rgb(255, 117, 161); fill: rgb(255, 117, 161); fill-opacity: 0.38;" transform="matrix(0.995226, 0.097602, -0.097602, 0.995226, 18.366404, -11.468879)" bx:shape="ring 137.087 176.008 15.909 15.909 24.827 24.827 1@f7e3c852"/>
  <path d="M 137.087 176.008 m -24.827 0 a 24.827 24.827 0 1 0 49.654 0 a 24.827 24.827 0 1 0 -49.654 0 Z M 137.087 176.008 m -15.909 0 a 15.909 15.909 0 0 1 31.818 0 a 15.909 15.909 0 0 1 -31.818 0 Z" style="paint-order: fill; stroke-width: 11px; stroke-linecap: round; stroke-linejoin: round; stroke: rgb(255, 117, 161); fill: rgb(255, 117, 161);" transform="matrix(0.995226, 0.097602, -0.097602, 0.995226, 277.312437, 75.54925)" bx:shape="ring 137.087 176.008 15.909 15.909 24.827 24.827 1@f7e3c852"/>
  <g>
    <ellipse style="stroke: rgb(0, 0, 0); stroke-width: 0px; fill: rgb(250, 123, 165);" cx="98.725" cy="252.557" rx="8.523" ry="8.523"/>
    <ellipse style="stroke: rgb(0, 0, 0); stroke-width: 0px; fill: rgb(250, 123, 165);" cx="120.839" cy="244.138" rx="8.523" ry="8.523"/>
    <ellipse style="stroke: rgb(0, 0, 0); stroke-width: 0px; fill: rgb(250, 123, 165);" cx="108.666" cy="275.354" rx="8.523" ry="8.523"/>
    <ellipse style="stroke: rgb(0, 0, 0); stroke-width: 0px; fill: rgb(250, 123, 165);" cx="128.83" cy="265.734" rx="8.523" ry="8.523"/>
  </g>
  <ellipse style="stroke: rgb(0, 0, 0); stroke-width: 0px; fill: rgb(250, 123, 165);" cx="367.687" cy="171.141" rx="8.523" ry="8.523"/>
  <ellipse style="stroke: rgb(0, 0, 0); stroke-width: 0px; fill: rgb(250, 123, 165);" cx="389.032" cy="180.242" rx="8.523" ry="8.523"/>
  <ellipse style="stroke: rgb(0, 0, 0); stroke-width: 0px; fill: rgb(250, 123, 165);" cx="358.46" cy="192.433" rx="8.523" ry="8.523"/>
  <ellipse style="stroke: rgb(0, 0, 0); stroke-width: 0px; fill: rgb(250, 123, 165);" cx="379.065" cy="202.104" rx="8.523" ry="8.523"/>
  <path style="stroke: rgb(0, 0, 0); stroke-width: 0px; fill: rgb(255, 255, 255);" d="M 51.433 174.081 L 88.8 331.386 L 98.856 329.934 L 112.669 272.521 L 129.513 324.209 L 136.914 321.134 L 159.486 183.651 L 138.24 179.38 L 127.6 277.052 L 115.858 238.524 L 106.648 238.525 L 95.88 284.781 L 84.304 160.766 L 51.433 174.081 Z"/>
  <path style="stroke: rgb(0, 0, 0); stroke-width: 0px; fill: rgb(255, 255, 255);" d="M 155.202 217.379 L 158.915 243.615 L 166.709 242.76 L 164.04 216.516 L 155.202 217.379 Z"/>
  <path style="stroke: rgb(0, 0, 0); stroke-width: 0px; fill: rgb(255, 255, 255);" d="M 167.222 214.141 L 170.219 243.533 L 179.91 242.396 L 177.687 213.774 L 167.222 214.141 Z"/>
  <path style="stroke: rgb(0, 0, 0); stroke-width: 0px; fill: rgb(255, 255, 255);" d="M 160.622 252.665 L 173.77 321.615 L 189.751 319.639 L 182.003 250.467 L 160.622 252.665 Z"/>
  <path style="stroke: rgb(0, 0, 0); stroke-width: 0px; fill: rgb(255, 255, 255);" d="M 184.605 180.512 L 199.593 315.184 L 213.341 314.29 L 204.61 181.289 L 184.605 180.512 Z"/>
  <path style="stroke: rgb(0, 0, 0); stroke-width: 0px; fill: rgb(255, 255, 255);" d="M 217.162 217.441 L 219.548 243.185 L 227.299 242.724 L 227.679 217.004 L 217.162 217.441 Z"/>
  <path style="stroke: rgb(0, 0, 0); stroke-width: 0px; fill: rgb(255, 255, 255);" d="M 230.309 217.097 L 229.815 243.29 L 240.866 242.865 L 240.102 217.049 L 230.309 217.097 Z"/>
  <path style="stroke: rgb(0, 0, 0); stroke-width: 0px; fill: rgb(255, 255, 255);" d="M 220.357 251.199 L 226.875 324.342 L 242.086 324.647 L 241.35 251.35 C 241.35 250.555 220.357 251.199 220.357 251.199 Z"/>
  <path style="stroke: rgb(0, 0, 0); stroke-width: 0px; fill: rgb(255, 255, 255);" d="M 246.991 171.606 L 284.358 328.911 L 294.414 327.459 L 308.227 270.046 L 325.071 321.734 L 332.472 318.659 L 355.044 181.176 L 333.798 176.905 L 323.158 274.577 L 311.416 236.049 L 302.206 236.05 L 291.438 282.306 L 279.862 158.291 L 246.991 171.606 Z"/>
  <path style="stroke: rgb(0, 0, 0); stroke-width: 0px; fill: rgb(255, 255, 255);" d="M 350.76 214.904 L 354.473 241.14 L 362.267 240.285 L 359.598 214.041 L 350.76 214.904 Z"/>
  <path style="stroke: rgb(0, 0, 0); stroke-width: 0px; fill: rgb(255, 255, 255);" d="M 362.78 211.666 L 365.777 241.058 L 375.468 239.921 L 373.245 211.299 L 362.78 211.666 Z"/>
  <path style="stroke: rgb(0, 0, 0); stroke-width: 0px; fill: rgb(255, 255, 255);" d="M 356.18 250.19 L 369.328 319.14 L 385.309 317.164 L 377.561 247.992 L 356.18 250.19 Z"/>
  <path style="stroke: rgb(0, 0, 0); stroke-width: 0px; fill: rgb(255, 255, 255);" d="M 380.163 178.037 L 395.151 312.709 L 408.899 311.815 L 400.168 178.814 L 380.163 178.037 Z"/>
  <path style="stroke: rgb(0, 0, 0); stroke-width: 0px; fill: rgb(255, 255, 255);" d="M 412.72 214.966 L 415.106 240.71 L 422.857 240.249 L 423.237 214.529 L 412.72 214.966 Z"/>
  <path style="stroke: rgb(0, 0, 0); stroke-width: 0px; fill: rgb(255, 255, 255);" d="M 425.867 214.622 L 425.373 240.815 L 436.424 240.39 L 435.66 214.574 L 425.867 214.622 Z"/>
  <path style="stroke: rgb(0, 0, 0); stroke-width: 0px; fill: rgb(255, 255, 255);" d="M 415.915 248.724 L 422.433 321.867 L 437.644 322.172 L 436.908 248.875 C 436.908 248.08 415.915 248.724 415.915 248.724 Z"/>
  <rect x="354.302" y="390.426" width="5.682" height="0.213" style="fill: rgb(216, 216, 216); stroke: rgb(0, 0, 0); stroke-width: 0px; visibility: hidden;"/>
</svg>