<?xml version="1.0" encoding="utf-8"?>
<svg id="icon" xmlns="http://www.w3.org/2000/svg" xmlns:xlink="http://www.w3.org/1999/xlink" width="16px" height="16px" viewBox="0 0 16 16">
    <path d="M13.545733333333333 10.831566666666667L10.511766666666666 10.831566666666667C10.658033333333332 11.1464 10.821733333333334 11.5575 10.880833333333332 11.953766666666667C10.923233333333332 12.2378 10.927266666666664 12.5857 10.893133333333333 12.916866666666666C10.859833333333334 13.240033333333333 10.784866666666666 13.601299999999998 10.6352 13.885C10.318299999999999 14.4858 9.882166666666667 14.9077 9.357366666666666 15.010033333333332C8.799166666666666 15.118933333333333 8.318566666666666 14.8349 8.030966666666666 14.399666666666665C7.7904333333333335 14.0357 7.6966 13.732033333333334 7.611066666666667 13.455099999999998L7.608366666666666 13.4463C7.526133333333332 13.180233333333334 7.4452333333333325 12.918866666666666 7.237266666666667 12.550533333333334C6.895133333333334 11.9445 6.615993333333333 11.630199999999999 6.240833333333333 11.3013C6.046326666666666 11.130733333333334 5.84366 11.023466666666666 5.666666666666666 10.961333333333332L5.666666666666666 1.8483599999999998C6.190953333333333 1.8370733333333331 6.752166666666666 1.8299333333333332 7.333333333333333 1.8299333333333332C8.896066666666666 1.8299333333333332 10.214966666666665 1.8809666666666667 11.084633333333333 1.9268C11.938133333333333 1.9717866666666666 12.754100000000001 2.4020266666666665 13.1998 3.183733333333333C13.621066666666666 3.92254 14.160633333333333 5.041013333333333 14.485833333333334 6.3784600000000005C14.7904 7.631 14.9174 8.649366666666666 14.968999999999998 9.341733333333334C15.032466666666666 10.193833333333332 14.340166666666665 10.831566666666667 13.545733333333333 10.831566666666667zM4.666666666666666 1.8755266666666666L4.666666666666666 10.831566666666667L3.5348733333333335 10.831566666666667C2.506193333333333 10.831566666666667 1.591813333333333 10.097666666666665 1.4747533333333334 9.032699999999998C1.4003066666666666 8.3554 1.3333333333333333 7.4746999999999995 1.3333333333333333 6.496593333333333C1.3333333333333333 5.438859999999999 1.4116666666666666 4.457486666666666 1.4928399999999997 3.7236666666666665C1.6048399999999998 2.711153333333333 2.43944 1.9716066666666665 3.4350066666666668 1.9246466666666664C3.78952 1.9079266666666665 4.205413333333333 1.8906066666666668 4.666666666666666 1.8755266666666666z" fill="#FF6699"/>
</svg>