<?xml version="1.0" encoding="utf-8"?>
<svg id="widget-agree" fill="none" viewBox="0 0 24 24" version="1.1" width="24px" height="24px" xmlns="http://www.w3.org/2000/svg">
  <path fill-rule="evenodd" clip-rule="evenodd" d="M 13.91 4.272 C 13.651 4.259 13.401 4.367 13.234 4.566 C 12.97 4.874 12.863 5.128 12.731 5.502 L 12.686 5.634 C 12.555 6.012 12.387 6.495 12.039 7.112 C 11.446 8.162 10.865 8.852 10.026 9.38 C 9.486 9.719 9.006 9.998 8.506 10.143 L 8.506 19.729 L 16.25 19.729 C 17.508 19.729 18.604 18.872 18.909 17.65 L 20.449 11.489 C 20.606 10.859 20.131 10.25 19.482 10.25 L 15.22 10.25 C 14.674 10.25 14.312 9.683 14.541 9.188 L 14.545 9.181 L 14.559 9.149 C 14.644 8.95 14.723 8.75 14.792 8.545 C 14.928 8.143 15.067 7.638 15.11 7.16 C 15.187 6.316 15.205 5.779 14.862 5.13 C 14.496 4.434 14.122 4.292 13.911 4.272 L 13.91 4.272 Z M 16.296 8.754 L 19.482 8.754 C 21.103 8.754 22.292 10.277 21.9 11.851 L 20.359 18.015 C 19.888 19.901 18.194 21.225 16.25 21.225 L 5.266 21.225 C 3.476 21.225 2.025 19.774 2.025 17.983 L 2.025 11.995 C 2.025 10.206 3.476 8.754 5.266 8.754 L 7.759 8.754 C 8.08 8.754 8.417 8.626 9.23 8.114 C 9.792 7.76 10.222 7.29 10.738 6.376 C 11.016 5.882 11.144 5.514 11.273 5.143 L 11.321 5.005 C 11.476 4.564 11.657 4.108 12.098 3.593 C 12.582 3.026 13.305 2.724 14.047 2.782 C 14.892 2.86 15.65 3.417 16.186 4.432 C 16.746 5.498 16.679 6.424 16.6 7.294 C 16.552 7.819 16.425 8.336 16.295 8.754 L 16.296 8.754 Z M 7.009 19.729 L 7.009 10.249 L 5.266 10.249 C 4.303 10.249 3.52 11.03 3.52 11.993 L 3.52 17.983 C 3.52 18.947 4.303 19.729 5.266 19.729 L 7.011 19.729 L 7.009 19.729 Z" fill="#757A81"/>
</svg>