<?xml version="1.0" encoding="utf-8"?>
<svg width="24px" height="24px" viewBox="0 0 24 24" fill="none" xmlns="http://www.w3.org/2000/svg">
  <path fill-rule="evenodd" clip-rule="evenodd" d="M 3 10.469 C 3 6.482 6.223 3.25 10.2 3.25 L 13.8 3.25 C 17.776 3.25 21 6.482 21 10.469 C 21 14.319 17.995 17.465 14.209 17.678 C 13.347 18.786 11.93 20.174 9.94 20.718 C 9.555 20.822 9.202 20.659 9.005 20.404 C 8.814 20.158 8.746 19.803 8.889 19.474 C 9.188 18.785 9.254 18.154 9.215 17.623 C 5.704 17.14 3 14.122 3 10.469 Z M 10.2 4.604 C 6.969 4.604 4.35 7.23 4.35 10.469 C 4.35 13.591 6.781 16.144 9.849 16.326 C 10.155 16.343 10.41 16.565 10.471 16.866 C 10.595 17.482 10.635 18.25 10.433 19.102 C 11.725 18.503 12.692 17.472 13.321 16.612 C 13.446 16.44 13.646 16.337 13.859 16.336 C 17.062 16.304 19.649 13.689 19.649 10.469 C 19.649 7.23 17.03 4.604 13.8 4.604 L 10.2 4.604 Z" fill="#757A81"/>
</svg>