<?xml version="1.0" encoding="utf-8"?>
<svg id="icon" xmlns="http://www.w3.org/2000/svg" xmlns:xlink="http://www.w3.org/1999/xlink" width="16px" height="16px" viewBox="0 0 16 16">
    <path d="M9.283433333333333 13.9697C9.095466666666667 13.9916 8.921333333333333 13.909866666666666 8.828166666666666 13.8009C8.424633333333333 13.328866666666666 8.332133333333333 12.635066666666667 8.029333333333334 12.098766666666666C7.630633333333333 11.392566666666667 7.258833333333333 10.9655 6.800866666666666 10.564C6.42382 10.233433333333332 6.042199999999999 10.012033333333333 5.666666666666666 9.908866666666666L5.666666666666666 2.8503266666666662C6.19062 2.83892 6.751966666666666 2.8316799999999995 7.333333333333333 2.8316799999999995C8.831233333333333 2.8316799999999995 10.1019 2.87922 10.958166666666665 2.923313333333333C11.565133333333332 2.9545733333333333 12.091966666666666 3.254906666666667 12.366466666666668 3.74326C12.7516 4.428373333333333 13.2264 5.4331 13.514166666666664 6.616486666666667C13.7823 7.719199999999999 13.904599999999999 8.625666666666666 13.959466666666666 9.265C13.984933333333332 9.561366666666666 13.750433333333334 9.833333333333332 13.386666666666665 9.833333333333332L10.065133333333332 9.833333333333332C9.898433333333333 9.833333333333332 9.742666666666667 9.9164 9.649833333333333 10.054833333333333C9.536066666666667 10.224499999999999 9.560033333333333 10.417133333333332 9.6312 10.596633333333333C9.783966666666666 10.986166666666666 9.983933333333333 11.567166666666667 10.062766666666667 12.095466666666667C10.1406 12.616966666666666 10.121599999999999 13.036066666666665 9.917133333333332 13.423766666666666C9.697399999999998 13.8403 9.448266666666665 13.950466666666665 9.283433333333333 13.9697zM10.773433333333333 10.833333333333332L13.386666666666665 10.833333333333332C14.269133333333333 10.833333333333332 15.036999999999999 10.124733333333332 14.9558 9.1794C14.897 8.494466666666666 14.767199999999999 7.537266666666666 14.485833333333334 6.380213333333334C14.170333333333334 5.08278 13.6532 3.991546666666667 13.238166666666666 3.25324C12.7729 2.425586666666667 11.910266666666667 1.9710199999999998 11.009566666666666 1.9246400000000001C10.14 1.8798599999999999 8.851766666666666 1.8316866666666665 7.333333333333333 1.8316866666666665C5.862206666666666 1.8316866666666665 4.51776 1.8769066666666667 3.565173333333333 1.9203599999999998C2.4932333333333334 1.969253333333333 1.5939999999999999 2.765553333333333 1.4786599999999999 3.856533333333333C1.4028 4.573953333333333 1.3333333333333333 5.502233333333333 1.3333333333333333 6.498353333333332C1.3333333333333333 7.411033333333333 1.3916466666666667 8.238766666666667 1.4598999999999998 8.895533333333333C1.5791666666666666 10.043033333333334 2.5641 10.833333333333332 3.671693333333333 10.833333333333332L5.166666666666666 10.833333333333332C5.3793066666666665 10.833333333333332 5.709213333333333 10.936833333333333 6.141613333333333 11.3159C6.516733333333333 11.644799999999998 6.816366666666667 11.984333333333334 7.158533333333333 12.590399999999999C7.5023 13.199266666666666 7.6041 13.907999999999998 8.068066666666667 14.4507C8.372133333333332 14.806333333333331 8.8718 15.024466666666665 9.399233333333333 14.962966666666667C9.949866666666665 14.898766666666667 10.457733333333334 14.542233333333332 10.801633333333331 13.8903C11.148866666666665 13.232 11.143799999999999 12.564333333333332 11.051833333333335 11.947933333333333C10.993899999999998 11.5598 10.875366666666666 11.147633333333333 10.773433333333333 10.833333333333332zM4.666666666666666 2.8778466666666667L4.666666666666666 9.833333333333332L3.671693333333333 9.833333333333332C3.029613333333333 9.833333333333332 2.5161533333333335 9.384966666666667 2.4545466666666664 8.792166666666667C2.3890599999999997 8.162066666666666 2.333333333333333 7.369566666666666 2.333333333333333 6.498353333333332C2.333333333333333 5.546566666666667 2.399833333333333 4.654719999999999 2.473113333333333 3.96168C2.533993333333333 3.385866666666667 3.0083466666666667 2.946793333333333 3.6107466666666665 2.91932C3.9228066666666668 2.9050866666666666 4.278173333333333 2.8906666666666667 4.666666666666666 2.8778466666666667z" fill="#757A81"/>
</svg>