<svg id="header-search" fill="none" viewBox="0 0 19 18" xmlns="http://www.w3.org/2000/svg" version="1.1">
    <path fill-rule="evenodd" clip-rule="evenodd" d="M17.345 15.7c.293.292.13.572-.152.863-.043.065-.097.119-.14.162-.282.248-.607.399-.868.14l-3.5-3.483a6.938 6.938 0 0 1-4.238 1.445c-3.826 0-6.947-3.096-6.947-6.914C1.5 4.106 4.61 1 8.447 1c3.826 0 6.947 3.095 6.947 6.913a6.908 6.908 0 0 1-1.528 4.325l3.48 3.462ZM3.136 7.903c0 2.912 2.385 5.274 5.3 5.274 2.916 0 5.3-2.362 5.3-5.274s-2.384-5.274-5.3-5.274c-2.926 0-5.3 2.372-5.3 5.274Z" fill="#FFFFFF"/>
</svg>
