<svg id="history-pc" fill="none" viewBox="0 0 16 16" xmlns="http://www.w3.org/2000/svg" version="1.1">
    <path fill-rule="evenodd" clip-rule="evenodd" d="M10.55 13a.5.5 0 1 1 0 1h-5a.5.5 0 0 1 0-1h5Zm2.5-11a2 2 0 0 1 2 2v6a2 2 0 0 1-2 2h-10a2 2 0 0 1-2-2V4a2 2 0 0 1 2-2h10Zm0 1h-10a1 1 0 0 0-.993.883L2.05 4v6a1 1 0 0 0 .883.993L3.05 11h10a1 1 0 0 0 .993-.883L14.05 10V4a1 1 0 0 0-1-1Z" fill="#FFFFFF"/>
    <path fill-rule="evenodd" clip-rule="evenodd" d="M7 11h2l1 3H6l1-3Z" fill="#FFFFFF"/>
</svg>
