<svg id="history-carplay" fill="none" viewBox="0 0 16 17" xmlns="http://www.w3.org/2000/svg" version="1.1">
    <path d="M2.113 9.853c0-1.491 1.31-2.694 2.835-2.627a69.63 69.63 0 0 0 6.104 0c1.526-.067 2.835 1.136 2.835 2.627v2.02a.5.5 0 0 1-.5.5H2.613a.5.5 0 0 1-.5-.5v-2.02Z" stroke="#FFFFFF"/>
    <path d="M4.227 4.548A1.5 1.5 0 0 1 5.692 3.37h4.743A1.5 1.5 0 0 1 11.9 4.548L12.438 7c-.266.031-.62.07-1.032.11-.942.09-2.186.18-3.406.18-1.22 0-2.431-.09-3.34-.18a39.698 39.698 0 0 1-.972-.108l.539-2.454Z" stroke="#FFFFFF"/>
    <circle cx="4.722" cy="9.824" r=".766" fill="#FFFFFF"/>
    <circle cx="11.278" cy="9.824" r=".766" fill="#FFFFFF"/>
    <path d="M3.04 12.702h.817L3.6 13.775a.284.284 0 0 1-.56-.067v-1.006ZM12.918 12.702H12.1l.258 1.073a.284.284 0 0 0 .56-.067v-1.006Z" fill="#D8D8D8" stroke="#FFFFFF"/>
</svg>
