<svg id="dynamic" data-name="动态" xmlns="http://www.w3.org/2000/svg" viewBox="0 0 24 24">
 <path d="M12,1 C12.6032725,1 13.0923215,1.49015271 13.0923215,2.09478673 L13.0919415,7.34448672 C14.1405747,6.48008747 15.4863884,5.96064782 16.9538392,5.96064782 C20.299965,5.96064782 23.0136451,8.66144851 23.0136451,11.994424 C23.0136451,12.5976965 22.5234924,13.0867455 21.9188584,13.0867455 L21.9188584,13.0867455 L16.6490923,13.0860736 C17.5214136,14.1341909 18.0461608,15.4820004 18.0461608,16.9526066 C18.0461608,20.2931041 15.3385912,23 12,23 C11.3967275,23 10.9076785,22.5098473 10.9076785,21.9052133 L10.9076785,21.9052133 L10.9080585,16.6555133 C9.85942532,17.5199125 8.51361156,18.0393522 7.04616077,18.0393522 C3.70003499,18.0393522 0.986354862,15.3385515 0.986354862,12.005576 C0.986354862,11.4023035 1.47650758,10.9132545 2.08114159,10.9132545 L7.35090774,10.9139264 C6.47858642,9.86580905 5.95383923,8.51799956 5.95383923,7.04739336 C5.95383923,3.70689593 8.66140884,1 12,1 Z M13.0923215,13.2512833 L13.0923215,20.65393 C14.6933378,20.1831243 15.8615177,18.7037893 15.8615177,16.9526066 C15.8615177,15.2014239 14.6933378,13.7220889 13.0923215,13.2512833 L13.0923215,13.2512833 Z M10.7583198,13.0978976 L3.33400176,13.0978976 C3.80733493,14.6913696 5.28978206,15.8547091 7.04616077,15.8547091 C8.80253948,15.8547091 10.2849866,14.6913696 10.7583198,13.0978976 Z M16.9538392,8.14529092 C15.1974605,8.14529092 13.7150134,9.30863041 13.2416802,10.9021024 L13.2416802,10.9021024 L20.6659982,10.9021024 C20.1926651,9.30863041 18.7102179,8.14529092 16.9538392,8.14529092 Z M10.9076785,3.34607 C9.30666224,3.81687566 8.13848232,5.29621066 8.13848232,7.04739336 C8.13848232,8.79857607 9.30666224,10.2779111 10.9076785,10.7487167 L10.9076785,3.34607 Z" id="合并形状" fill="#FFFFFF"></path>
</svg>