<svg id="history-phone" fill="none" viewBox="0 0 16 16" xmlns="http://www.w3.org/2000/svg" version="1.1">
    <path fill="#61666D" fill-rule="evenodd" clip-rule="evenodd" d="M8.167 3.667c-1.68 0-3.145.085-4.18.169a1.448 1.448 0 0 0-1.34 1.32A35.962 35.962 0 0 0 2.5 8.333c0 1.218.07 2.332.147 3.177a1.448 1.448 0 0 0 1.34 1.32c1.035.085 2.5.17 4.18.17 1.679 0 3.145-.085 4.18-.17a1.448 1.448 0 0 0 1.34-1.32c.076-.844.146-1.958.146-3.177s-.07-2.333-.146-3.177a1.448 1.448 0 0 0-1.34-1.32c-1.035-.084-2.501-.17-4.18-.17Zm-4.26-.828a53.379 53.379 0 0 1 4.26-.172c1.711 0 3.205.087 4.26.172a2.448 2.448 0 0 1 2.256 2.227c.078.867.15 2.011.15 3.267 0 1.256-.072 2.401-.15 3.267a2.448 2.448 0 0 1-2.256 2.227 53.368 53.368 0 0 1-4.26.173c-1.712 0-3.205-.087-4.26-.173A2.448 2.448 0 0 1 1.65 11.6 36.965 36.965 0 0 1 1.5 8.333c0-1.255.073-2.4.15-3.266a2.448 2.448 0 0 1 2.256-2.228Z"/>
    <path fill="#61666D" fill-rule="evenodd" clip-rule="evenodd" d="M4.333 6.501a.5.5 0 0 1 .5.5c0 .864.005 1.525.145 1.978.065.212.147.33.231.398.08.064.21.124.457.124a.5.5 0 1 1 0 1c-.42 0-.788-.106-1.084-.345-.29-.234-.459-.553-.56-.883-.19-.614-.19-1.427-.189-2.211v-.06a.5.5 0 0 1 .5-.5Z"/>
    <path fill="#61666D" fill-rule="evenodd" clip-rule="evenodd" d="M7 6.501a.5.5 0 0 0-.5.5c0 .864-.005 1.525-.145 1.978-.065.212-.147.33-.231.398-.08.064-.21.124-.457.124a.5.5 0 1 0 0 1c.42 0 .788-.106 1.084-.345.29-.234.459-.553.56-.883.19-.614.19-1.427.189-2.211v-.06a.5.5 0 0 0-.5-.5ZM8.667 6.501a.5.5 0 0 1 .5.5v3a.5.5 0 1 1-1 0v-3a.5.5 0 0 1 .5-.5ZM11.988 6.772c.496.289.845.802.845 1.563 0 .734-.323 1.262-.765 1.606-.422.328-.932.476-1.335.532-.527.072-.9-.365-.9-.805V7.284c0-.393.292-.789.756-.812.402-.019.941.033 1.4.3Zm-1.155.699v1.966c.224-.056.446-.149.621-.285.218-.17.379-.415.379-.817 0-.405-.16-.59-.348-.7a1.448 1.448 0 0 0-.652-.164Z"/>
</svg>
