<?xml version="1.0" encoding="utf-8"?>
<svg viewBox="0 0 26 26" width="26px" height="26px" xmlns="http://www.w3.org/2000/svg" xmlns:xlink="http://www.w3.org/1999/xlink">
    <path style="fill: #FF6699; stroke-width: 0;" d="M 4.695 9.744 C 4.674 9.132 4.746 8.612 5.67 8.578 L 21.251 8.498 C 22.112 8.533 22.343 8.951 22.326 9.598 L 22.341 24.246 C 22.33 25.017 21.441 25.334 20.663 24.875 L 13.373 21.174 L 6.556 24.696 C 5.853 25.169 4.736 25.036 4.747 24.23 L 4.695 9.744 Z M 11.697 12.894 L 11.751 16.994 C 11.796 17.447 12.431 17.535 12.827 17.3 L 15.782 15.234 C 16.257 14.906 16.384 14.509 15.79 14.114 L 12.779 12.196 C 12.23 11.92 11.688 12.389 11.697 12.894 Z"/>
    <path style="fill: #FF6699; stroke-width: 0;" d="M 4.668 6.879 C 4.684 7.178 4.703 7.18 5.065 7.17 L 21.73 7.2 C 22.269 7.219 22.252 7.198 22.26 6.816 L 22.25 5.065 C 22.258 4.285 21.538 3.796 20.664 3.781 L 6.227 3.784 C 5.519 3.818 4.689 4.289 4.654 5.117 L 4.668 6.879 Z"/>
</svg>