<svg width="26" height="26" viewBox="0 0 26 26" fill="none" xmlns="http://www.w3.org/2000/svg">
    <path fill-rule="evenodd" clip-rule="evenodd" d="m23.109 12.722-.9-.81v5.683c0 .872 0 1.592-.049 2.178-.05.609-.156 1.169-.424 1.695a4.334 4.334 0 0 1-1.894 1.893c-.525.268-1.085.375-1.694.425-.587.047-1.306.047-2.178.047h-5.94c-.872 0-1.592 0-2.178-.047-.609-.05-1.169-.157-1.694-.425a4.334 4.334 0 0 1-1.894-1.893c-.268-.526-.375-1.086-.424-1.695-.048-.586-.048-1.306-.048-2.178v-5.683l-.9.81a1.083 1.083 0 0 1-1.45-1.61l9.928-8.935c.144-.13.295-.266.435-.373a1.96 1.96 0 0 1 .632-.338c.367-.11.759-.11 1.126 0 .269.081.476.217.632.338.14.107.29.242.435.373l9.928 8.935a1.083 1.083 0 1 1-1.45 1.61Zm-12.307 2.46a1.083 1.083 0 1 0-2.105.512l.006.024c.046.194.23.974.826 1.716.663.826 1.767 1.524 3.471 1.524 1.705 0 2.81-.7 3.472-1.526.6-.748.783-1.531.827-1.722l.005-.022a1.083 1.083 0 0 0-2.108-.5l-.003.013c-.03.13-.121.515-.41.875-.263.327-.752.716-1.783.716s-1.52-.388-1.782-.714c-.286-.357-.377-.736-.411-.879l-.005-.018Z" fill="#61666D"/>
</svg>