<svg width="26" height="26" viewBox="0 0 26 26" fill="none" xmlns="http://www.w3.org/2000/svg">
    <path d="M8.185 18.777c-2.393 0-4.333-1.724-4.333-3.852h8.666c0 2.128-1.94 3.852-4.333 3.852ZM18.778 18.777c0 2.394-1.725 4.334-3.852 4.334v-8.667c2.127 0 3.852 1.94 3.852 4.333ZM8.185 8.185c0 2.393 1.725 4.333 3.852 4.333V3.851c-2.127 0-3.852 1.94-3.852 4.334ZM18.778 8.185c-2.393 0-4.333 1.725-4.333 3.852h8.666c0-2.127-1.94-3.852-4.333-3.852Z" fill="#FF6699" stroke="#FF6699" stroke-width="2" stroke-linecap="round" stroke-linejoin="round"/>
</svg>