<svg width="28" height="28" viewBox="-4 -4 28 28" fill="none" xmlns="http://www.w3.org/2000/svg" class="right-entry-icon">
	<path d="M15.435 17.7717H4.567C2.60143 17.7717 1 16.1723 1 14.2047V5.76702C1 3.80144 2.59942 2.20001 4.567 2.20001H15.433C17.3986 2.20001 19 3.79943 19 5.76702V14.2047C19.002 16.1703 17.4006 17.7717 15.435 17.7717ZM4.567 4.00062C3.59327 4.00062 2.8006 4.79328 2.8006 5.76702V14.2047C2.8006 15.1784 3.59327 15.9711 4.567 15.9711H15.433C16.4067 15.9711 17.1994 15.1784 17.1994 14.2047V5.76702C17.1994 4.79328 16.4067 4.00062 15.433 4.00062H4.567Z" fill="#61666D"></path>
	<path d="M9.99943 11.2C9.51188 11.2 9.02238 11.0667 8.59748 10.8019L8.5407 10.7635L4.3329 7.65675C3.95304 7.37731 3.88842 6.86226 4.18996 6.50976C4.48954 6.15544 5.0417 6.09699 5.4196 6.37643L9.59412 9.45943C9.84279 9.60189 10.1561 9.60189 10.4067 9.45943L14.5812 6.37643C14.9591 6.09699 15.5113 6.15544 15.8109 6.50976C16.1104 6.86409 16.0478 7.37731 15.6679 7.65675L11.4014 10.8019C10.9765 11.0667 10.487 11.2 9.99943 11.2Z" fill="#61666D"></path>
</svg>