<svg id="history-phone" fill="none" viewBox="0 0 16 16" xmlns="http://www.w3.org/2000/svg" version="1.1">
    <path fill="#61666D" fill-rule="evenodd" clip-rule="evenodd" d="M8.159 2.396a.574.574 0 0 0 .562.562l3.362.05-3.335 3.336c-1.758-1.38-4.27-1.295-5.844.279-1.704 1.704-1.662 4.51.094 6.265 1.756 1.757 4.561 1.799 6.266.095 1.573-1.574 1.658-4.086.279-5.844l3.335-3.336.05 3.362a.574.574 0 0 0 .563.562c.306.005.55-.24.545-.545l-.07-4.699a.574.574 0 0 0-.563-.562l-4.699-.07a.534.534 0 0 0-.545.545Zm.31 9.792c-1.278 1.278-3.382 1.246-4.7-.071-1.317-1.317-1.348-3.42-.07-4.699 1.278-1.278 3.382-1.246 4.699.07 1.317 1.318 1.349 3.422.07 4.7Z"/>
</svg>
