<svg id="history-phone" fill="none" viewBox="0 0 12 12" xmlns="http://www.w3.org/2000/svg" version="1.1">
    <path fill="#61666D" fill-rule="evenodd" clip-rule="evenodd" d="M9.88 5.972A3.134 3.134 0 0 1 7.253 7.39c-.584 0-1.209-.167-1.71-.5-1.459-.96-1.917-2.878-.958-4.337.583-.834 1.585-1.376 2.627-1.418.583 0 1.209.167 1.71.5 1.458.96 1.917 2.878.958 4.337ZM9.421.76C8.796.3 8.004.093 7.17.093c-1.376 0-2.71.667-3.503 1.96-1.167 1.75-.75 4.086.793 5.42l-.417.667-2.46-1.584s-.584-.375-.835.042c-.291.458.292.833.292.833L3.5 9.016l-1.376 2.127s-.25.416.209.667c.5.291.75-.167.75-.167l1.335-2.085 2.418 1.585s.626.375.918-.084c.25-.375-.334-.75-.334-.75L4.96 8.682l.417-.625c.584.292 1.21.417 1.793.417 1.376 0 2.71-.667 3.502-1.96 1.251-1.918.667-4.503-1.25-5.754Z"/>
</svg>
