<!DOCTYPE svg PUBLIC "-//W3C//DTD SVG 1.1//EN" "http://www.w3.org/Graphics/SVG/1.1/DTD/svg11.dtd">
<svg xmlns="http://www.w3.org/2000/svg" viewBox="0 0 16 16" fill="#505050" fill-rule="evenodd" id="bpx-svg-sprite-tips">
    <path d="M8 2a6 6 0 106 6 6 6 0 00-6-6zm0 11a5 5 0 115-5 5 5 0 01-5 5z"/>
    <path d="M8.57 10.57a.55.55 0 01-.57.53.56.56 0 01-.57-.53.57.57 0 011.14 0zM10.1 6.86A1.87 1.87 0 019 8.38a1 1 0 00-.48.81v.07a.52.52 0 01-1 0v-.07a1.93 1.93 0 011-1.64c.45-.27.61-.51.61-.69A1 1 0 008 5.88a1 1 0 00-1.06 1 .5.5 0 01-.52.49.51.51 0 01-.52-.49A2 2 0 018 4.9a2 2 0 012.1 1.96z"/>
</svg>