<svg width="32" height="32" viewBox="0 0 32 32" fill="none" xmlns="http://www.w3.org/2000/svg" class="">
    <path fill-rule="evenodd" clip-rule="evenodd" d="M16 11.4a4.6 4.6 0 1 0 0 9.201 4.6 4.6 0 0 0 0-9.2Zm-.995 2.198a2.602 2.602 0 0 1 3.595 2.403 2.6 2.6 0 1 1-3.595-2.403Z" fill="#FF6699"></path>
    <path fill-rule="evenodd" clip-rule="evenodd" d="M14.149 5.862a4.067 4.067 0 0 1 3.702 0l5.933 3.033A4.067 4.067 0 0 1 26 12.517v6.904a4.068 4.068 0 0 1-2.186 3.605l-5.932 3.096a4.067 4.067 0 0 1-3.764 0l-5.933-3.096A4.067 4.067 0 0 1 6 19.421v-6.904a4.07 4.07 0 0 1 2.216-3.622l5.933-3.033Zm.91 1.781a2.067 2.067 0 0 1 1.882 0l5.933 3.033A2.067 2.067 0 0 1 24 12.517v6.904a2.067 2.067 0 0 1-1.111 1.832l-5.932 3.096a2.068 2.068 0 0 1-1.914 0L9.11 21.253A2.065 2.065 0 0 1 8 19.421v-6.904a2.067 2.067 0 0 1 1.126-1.841l5.878-3.005h.001l.054-.028Z" fill="#FF6699"></path>
</svg>