<svg width="26" height="26" viewBox="0 0 26 26" fill="none" xmlns="http://www.w3.org/2000/svg">
    <path fill-rule="evenodd" clip-rule="evenodd" d="M9.919 4.718a.963.963 0 0 0-1.541 1.156L9.39 7.223c-.652.003-1.209.013-1.684.052-.67.055-1.262.17-1.812.45a4.622 4.622 0 0 0-2.02 2.02c-.28.55-.396 1.143-.45 1.813-.054.65-.054 1.45-.054 2.44v2.336c0 .99 0 1.791.053 2.44.055.67.171 1.263.451 1.813a4.622 4.622 0 0 0 2.02 2.02c.55.28 1.143.396 1.812.45.65.054 1.451.054 2.441.054h6.669c.99 0 1.791 0 2.44-.053.67-.055 1.263-.17 1.813-.451a4.621 4.621 0 0 0 2.02-2.02c.28-.55.396-1.142.45-1.812.054-.65.054-1.451.054-2.44v-2.336c0-.99 0-1.792-.053-2.441-.055-.67-.171-1.262-.451-1.812a4.622 4.622 0 0 0-2.02-2.02c-.55-.28-1.143-.396-1.812-.451a22.668 22.668 0 0 0-1.684-.052l1.012-1.35a.963.963 0 1 0-1.54-1.155l-1.878 2.504h-3.37L9.918 4.718Zm1.637 8.763a.963.963 0 0 0-1.926 0v3.37a.963.963 0 1 0 1.926 0v-3.37Zm5.777 0a.963.963 0 0 0-1.926 0v3.37a.963.963 0 0 0 1.926 0v-3.37Z" fill="#61666D"/>
</svg>