<svg width="12" height="13" viewBox="0 0 12 13" fill="none" xmlns="http://www.w3.org/2000/svg">
    <path d="M6 11.6c2.811 0 5.101-2.29 5.101-5.1 0-2.812-2.289-5.1-5.1-5.1C3.189 1.4.9 3.687.9 6.5c0 2.81 2.288 5.1 5.1 5.1Zm0 .9c-3.315 0-6-2.685-6-6s2.685-6 6-6c3.316 0 6 2.685 6 6s-2.684 6-6 6Z" fill="#9499A0"></path>
    <path d="M6 9.5a.6.6 0 1 1 0-1.201.6.6 0 0 1 0 1.2Zm.036-1.8h-.074a.563.563 0 0 1-.562-.564V4.06a.562.562 0 0 1 .562-.561h.074a.562.562 0 0 1 .564.561v3.076a.562.562 0 0 1-.563.563Z" fill="#9499A0"></path>
</svg>