<svg data-v-c27fd710="" width="40" height="40" viewBox="0 0 40 40" fill="none" xmlns="http://www.w3.org/2000/svg" class="share-btn-icon">
  <circle cx="20" cy="20" r="20" fill="#F4BF41" data-darkreader-inline-fill=""
    style="--darkreader-inline-fill: #f5c24a;"></circle>
  <path fill-rule="evenodd" clip-rule="evenodd"
    d="M25.7608 17.8223L18.7132 22.8777C18.7132 22.8777 21.5417 23.2974 25.8074 23.2492L25.6134 22.4129L31.6916 17.147C31.8029 17.05 31.8457 16.8958 31.7999 16.7552C31.7547 16.6145 31.6291 16.5145 31.481 16.5025L23.4685 15.8143L20.3384 8.40576C20.2812 8.27038 20.1474 8.18164 20 8.18164C19.8526 8.18164 19.7187 8.27038 19.6615 8.40576L16.5307 15.8143L8.51822 16.5025C8.37081 16.5145 8.24522 16.6145 8.19934 16.7552C8.15422 16.8958 8.19708 17.05 8.30839 17.147L14.3866 22.4129L12.5651 30.2472C12.5312 30.3901 12.5869 30.5405 12.7065 30.6277C12.8268 30.7135 12.9862 30.7195 13.1133 30.6443L20 26.4906L26.8866 30.6443C26.9453 30.6811 27.0107 30.6969 27.0769 30.6969C27.1536 30.6969 27.2288 30.6744 27.2927 30.6277C27.4123 30.5405 27.4687 30.3901 27.4349 30.2472L25.9947 24.0517C26.6121 23.7411 27.2927 23.2154 27.2927 23.2154C27.2927 23.2154 24.5958 24.5323 14.9138 23.8885L21.9305 18.803C21.9305 18.803 21.6545 18.3736 12.8606 18.0675C12.2718 18.0472 20.0301 16.5965 25.7608 17.8223Z"
    fill="white" data-darkreader-inline-fill="" style="--darkreader-inline-fill: #e8e6e3;"></path>
</svg>