<svg data-v-c27fd710="" width="40" height="40" viewBox="0 0 40 40" fill="none" xmlns="http://www.w3.org/2000/svg" class="share-btn-icon">
  <circle cx="20" cy="20" r="20" fill="#57BB40" data-darkreader-inline-fill=""
    style="--darkreader-inline-fill: #6bc556;"></circle>
  <path fill-rule="evenodd" clip-rule="evenodd"
    d="M19.7168 13.7118C19.0097 13.7118 18.4441 14.2616 18.4441 14.9491C18.4441 15.6366 19.0097 16.1864 19.7168 16.1864C20.424 16.1864 20.9896 15.6366 20.9896 14.9491C20.9896 14.2616 20.424 13.7118 19.7168 13.7118ZM13.6355 13.7118C12.9292 13.7118 12.3628 14.2616 12.3628 14.9491C12.3628 15.6366 12.9292 16.1864 13.6355 16.1864C14.3427 16.1864 14.909 15.6366 14.909 14.9491C14.909 14.2616 14.3427 13.7118 13.6355 13.7118ZM17.1724 22.9225C17.1724 23.61 17.314 24.2974 17.5964 24.8472H16.7484C15.7581 24.8472 14.6269 24.7104 13.6366 24.4351L10.1016 26.0845L10.9503 23.3347C8.68727 21.9605 7.27295 19.8982 7.27295 17.4236C7.27295 13.2996 11.5159 10 16.6068 10C21.273 10 25.0919 12.7498 25.7991 16.1863H25.0919C20.7074 16.1863 17.1724 19.2107 17.1724 22.9225ZM27.9199 19.8983C27.3543 19.8983 26.9296 20.3105 26.9296 20.8603C26.9296 21.4109 27.3543 21.8231 27.9199 21.8231C28.4855 21.8231 28.9102 21.4109 28.9102 20.8603C28.9102 20.3105 28.4855 19.8983 27.9199 19.8983ZM22.8285 19.8983C22.263 19.8983 21.839 20.3105 21.839 20.8603C21.839 21.4109 22.263 21.8231 22.8285 21.8231C23.3941 21.8231 23.8181 21.4109 23.8181 20.8603C23.8181 20.3105 23.3941 19.8983 22.8285 19.8983ZM29.7576 28.0091L30.4647 30.2083L27.9193 28.8342C27.0705 29.1087 26.2226 29.2464 25.233 29.2464C21.1308 29.2464 17.7374 26.4965 17.7374 23.06C17.7374 19.6235 21.1308 16.8737 25.233 16.8737C29.3336 16.8737 32.727 19.6235 32.727 23.06C32.727 24.9847 31.5966 26.7718 29.7576 28.0091Z"
    fill="white" data-darkreader-inline-fill="" style="--darkreader-inline-fill: #e8e6e3;"></path>
</svg>