<svg data-v-c27fd710="" width="40" height="40" viewBox="0 0 40 40" fill="none" xmlns="http://www.w3.org/2000/svg" class="share-btn-icon">
  <circle cx="20" cy="20" r="20" fill="#DB4437" data-darkreader-inline-fill="" style="--darkreader-inline-fill: #de5448;"></circle>
  <path fill-rule="evenodd" clip-rule="evenodd"
    d="M27.6183 16.703C27.2244 16.703 26.8309 16.3091 26.8309 15.9156C26.9618 14.9968 26.4369 14.078 25.3868 13.8157H24.9933C24.5993 13.8157 24.2058 13.4218 24.2058 13.0282C24.2058 12.6343 24.5993 12.2408 24.9933 12.2408C26.8309 12.2408 28.2745 13.6844 28.2745 15.5216V15.7842C28.2745 16.4404 28.0123 16.703 27.6183 16.703ZM17.6437 23.1338C17.3811 23.1338 17.2497 23.3965 17.2497 23.6591C17.2497 23.9213 17.5124 24.0526 17.6437 24.0526C17.7746 24.0526 18.0372 23.7904 18.0372 23.6591C18.1685 23.3965 17.9059 23.1338 17.6437 23.1338ZM15.4125 23.5278C14.7564 23.5278 14.2311 24.0526 14.2311 24.7088C14.2311 25.3654 14.7564 25.8902 15.4125 25.8902C16.0687 25.8902 16.5936 25.3654 16.5936 24.7088C16.5936 24.0526 16.0687 23.5278 15.4125 23.5278ZM17.5124 27.2026C15.4125 27.7274 13.3127 26.809 12.9188 24.9718C12.5252 23.1338 13.8376 21.4279 15.9374 20.9031C18.0372 20.3782 20.1371 21.2966 20.531 23.1338C20.9245 24.9718 19.6122 26.6777 17.5124 27.2026ZM16.9871 18.9342C13.0501 19.1968 9.90014 21.4279 10.0315 24.0526C10.1624 26.6777 13.5749 28.5149 17.5124 28.2527C21.4498 27.9901 24.5993 25.7593 24.4684 23.1338C24.3371 20.5091 20.9245 18.8029 16.9871 18.9342ZM24.4684 15.3907C26.1743 16.1782 25.1246 19.3281 25.1246 19.3281C26.0434 19.4594 26.8309 19.853 27.487 20.5091C29.3246 22.609 27.7496 27.0716 21.4498 29.1715C15.8061 31.0087 10.1624 29.1715 8.58779 25.6276C7.01283 21.8215 10.1624 16.0469 15.5435 13.0282C16.2 12.6343 18.2998 11.9781 19.4813 13.2909C20.1371 14.078 19.4813 16.3091 19.4813 16.3091C19.4813 16.3091 21.9746 14.2093 24.4684 15.3907ZM31.6871 16.703C31.6871 17.2283 31.1618 17.7531 30.637 17.7531C30.1121 17.7531 29.5869 17.2283 29.5869 16.703V16.5717C29.9804 13.947 28.1432 11.5846 25.5185 11.1907H24.862H24.731C24.2058 11.1907 23.6809 10.6658 23.6809 10.1409C23.6809 9.61606 24.2058 9.09082 24.731 9.09082H24.862C28.6681 9.09082 31.818 12.2408 31.818 16.0469V16.5717C31.6871 16.5717 31.6871 16.703 31.6871 16.703Z"
    fill="white" data-darkreader-inline-fill="" style="--darkreader-inline-fill: #e8e6e3;"></path>
</svg>