<svg data-v-c27fd710="" width="40" height="40" viewBox="0 0 40 40" fill="none" xmlns="http://www.w3.org/2000/svg" class="share-btn-icon">
  <circle cx="20" cy="20" r="20" fill="#FB7299" data-darkreader-inline-fill="" style="--darkreader-inline-fill: #fb6b94;"></circle>
  <path fill-rule="evenodd" clip-rule="evenodd"
    d="M14.5455 14.5455C14.5455 12.0351 16.5805 10 19.0909 10V19.0909C16.5805 19.0909 14.5455 17.0558 14.5455 14.5455ZM25.4545 25.4545C25.4545 22.9442 23.4195 20.9091 20.9091 20.9091V30C23.4195 30 25.4545 27.9649 25.4545 25.4545ZM20.9091 19.0909C20.9091 16.5805 22.9442 14.5455 25.4545 14.5455C27.9649 14.5455 30 16.5805 30 19.0909H20.9091ZM14.5455 25.4545C12.0351 25.4545 10 23.4195 10 20.9091H19.0909C19.0909 23.4195 17.0558 25.4545 14.5455 25.4545Z"
    fill="white" data-darkreader-inline-fill="" style="--darkreader-inline-fill: #e8e6e3;"></path>
  <path
    d="M19.0909 10H19.5455C19.5455 9.74896 19.3419 9.54545 19.0909 9.54545V10ZM19.0909 19.0909V19.5455C19.3419 19.5455 19.5455 19.3419 19.5455 19.0909H19.0909ZM20.9091 20.9091V20.4545C20.6581 20.4545 20.4545 20.6581 20.4545 20.9091H20.9091ZM20.9091 30H20.4545C20.4545 30.251 20.6581 30.4545 20.9091 30.4545V30ZM20.9091 19.0909H20.4545C20.4545 19.3419 20.6581 19.5455 20.9091 19.5455V19.0909ZM30 19.0909V19.5455C30.251 19.5455 30.4545 19.3419 30.4545 19.0909H30ZM10 20.9091V20.4545C9.74896 20.4545 9.54545 20.6581 9.54545 20.9091H10ZM19.0909 20.9091H19.5455C19.5455 20.6581 19.3419 20.4545 19.0909 20.4545V20.9091ZM19.0909 9.54545C16.3295 9.54545 14.0909 11.784 14.0909 14.5455H15C15 12.2861 16.8316 10.4545 19.0909 10.4545V9.54545ZM19.5455 19.0909V10H18.6364V19.0909H19.5455ZM14.0909 14.5455C14.0909 17.3069 16.3295 19.5455 19.0909 19.5455V18.6364C16.8316 18.6364 15 16.8048 15 14.5455H14.0909ZM20.9091 21.3636C23.1684 21.3636 25 23.1952 25 25.4545H25.9091C25.9091 22.6931 23.6705 20.4545 20.9091 20.4545V21.3636ZM21.3636 30V20.9091H20.4545V30H21.3636ZM25 25.4545C25 27.7139 23.1684 29.5455 20.9091 29.5455V30.4545C23.6705 30.4545 25.9091 28.216 25.9091 25.4545H25ZM25.4545 14.0909C22.6931 14.0909 20.4545 16.3295 20.4545 19.0909H21.3636C21.3636 16.8316 23.1952 15 25.4545 15V14.0909ZM30.4545 19.0909C30.4545 16.3295 28.216 14.0909 25.4545 14.0909V15C27.7139 15 29.5455 16.8316 29.5455 19.0909H30.4545ZM20.9091 19.5455H30V18.6364H20.9091V19.5455ZM9.54545 20.9091C9.54545 23.6705 11.784 25.9091 14.5455 25.9091V25C12.2861 25 10.4545 23.1684 10.4545 20.9091H9.54545ZM19.0909 20.4545H10V21.3636H19.0909V20.4545ZM14.5455 25.9091C17.3069 25.9091 19.5455 23.6705 19.5455 20.9091H18.6364C18.6364 23.1684 16.8048 25 14.5455 25V25.9091Z"
    fill="white" data-darkreader-inline-fill="" style="--darkreader-inline-fill: #e8e6e3;"></path>
</svg>