<svg data-v-c27fd710="" width="40" height="40" viewBox="0 0 40 40" fill="none" xmlns="http://www.w3.org/2000/svg" class="share-btn-icon">
  <circle cx="20" cy="20" r="20" fill="#5582E7" data-darkreader-inline-fill=""
    style="--darkreader-inline-fill: #5b9fe8;"></circle>
  <path fill-rule="evenodd" clip-rule="evenodd"
    d="M19.4525 10.18C19.4525 10.0806 19.3719 10 19.2725 10H12.43C11.0879 10 10 11.0879 10 12.43V24.6952C10 24.7946 10.0806 24.8752 10.18 24.8752H12.1687C12.2681 24.8752 12.3487 24.7946 12.3487 24.6952V12.3936H17.1492V24.6952C17.1492 24.7946 17.2298 24.8752 17.3292 24.8752H19.2725C19.3719 24.8752 19.4525 24.7946 19.4525 24.6952V10.18ZM22.791 10.18V18.9211H21.089C20.9895 18.9211 20.909 19.0017 20.909 19.1011V29.813C20.909 29.9125 20.9895 29.993 21.089 29.993H27.57C28.9121 29.993 30 28.9051 30 27.563V19.1011C30 19.0017 29.9194 18.9211 29.82 18.9211H25.0901V14.2177C25.0901 14.1183 25.1707 14.0377 25.2701 14.0377H29.82C29.9194 14.0377 30 13.9571 30 13.8577V11.7972C30 11.6978 29.9194 11.6172 29.82 11.6172H25.2701C25.1707 11.6172 25.0901 11.5366 25.0901 11.4372V10.18C25.0901 10.0806 25.0095 10 24.9101 10H22.971C22.8716 10 22.791 10.0806 22.791 10.18ZM27.6772 21.2751H23.2247V27.6576H27.6772V21.2751ZM13.7366 13.6401C13.6372 13.6401 13.5566 13.7193 13.5566 13.8187V23.4181C13.5566 26.8874 10 27.6805 10 27.6805V29.993C10 29.993 12.5302 30.1366 14.7262 27.3201C16.2314 29.7651 19.4525 29.993 19.4525 29.993C19.4525 29.993 19.4574 27.7087 19.4525 27.6805C15.5546 27.0698 15.9039 23.466 15.9096 23.4181V13.8191C15.9096 13.7197 15.829 13.6401 15.7296 13.6401H13.7366Z"
    fill="white" data-darkreader-inline-fill="" style="--darkreader-inline-fill: #e8e6e3;"></path>
</svg>