<svg data-v-c27fd710="" width="40" height="40" viewBox="0 0 40 40" fill="none" xmlns="http://www.w3.org/2000/svg" class="share-btn-icon">
  <circle cx="20" cy="20" r="20" fill="#4CA2E5" data-darkreader-inline-fill="" style="--darkreader-inline-fill: #55a9e6;"></circle>
  <path fill-rule="evenodd" clip-rule="evenodd"
    d="M29.0365 24.2657C28.9059 22.7032 28.0439 20.9636 27.6915 20.0894L26.7801 17.8395C26.7515 16.9025 27.0413 14.7516 25.5216 12.0594C23.9972 9.36651 20.9438 9.12432 20.3787 9.09627C19.8136 9.06821 16.2817 9.04089 14.5447 11.9715C12.8077 14.9015 13.277 17.8395 13.277 17.8395L12.3053 20.1049C12.3053 20.1049 11.8538 21.1393 11.4627 22.3968C11.0715 23.6543 10.6796 25.6317 11.0715 26.0334C11.4627 26.435 12.8804 24.194 13.011 23.9866C13.011 23.9866 13.1123 25.0565 13.3805 25.6177C13.5954 26.0659 14.1103 27.1845 15.1515 28.0617C14.6514 28.216 13.4509 28.6288 13.2739 29.0578C13.052 29.6027 13.4478 29.667 14.1242 29.7039C14.8006 29.7408 18.0426 29.8242 19.5964 29.6168C19.6134 29.6138 19.6273 29.6116 19.6443 29.6094C19.7966 29.6138 19.9388 29.6168 20.0764 29.6168C20.1638 29.6168 20.2651 29.6138 20.374 29.6116C20.3841 29.6138 20.3957 29.6138 20.4057 29.6168C21.9587 29.8242 25.2031 29.7408 25.8772 29.7039C26.5536 29.667 26.947 29.6027 26.7275 29.0578C26.5482 28.6214 25.3144 28.2042 24.829 28.0565C24.9805 27.9273 25.1281 27.7885 25.2734 27.6386C27.0243 25.8 26.8798 24.6393 26.9524 23.9747C26.9524 23.9747 28.4281 26.0075 28.7466 26.0769C29.0659 26.1463 29.1648 25.8274 29.0365 24.2657Z"
    fill="white" data-darkreader-inline-fill="" style="--darkreader-inline-fill: #e8e6e3;"></path>
</svg>