<svg version="1.1" xmlns="http://www.w3.org/2000/svg" xmlns:xlink="http://www.w3.org/1999/xlink" x="0px"
     y="0px" viewBox="0 0 30 30" style="enable-background:new 0 0 30 30;" xml:space="preserve">
    <style type="text/css">.st1.hardcore{fill-rule:evenodd;clip-rule:evenodd;fill:#FFFFFF;}.st2.hardcore{fill:#F04C49;}</style>
    <path class="st1 hardcore" d="M19.9,11.1h-5.6v1.1H2.1v6.7h17.8v-6.7h0V11.1z"></path>
    <path class="st2 hardcore"
          d="M1.8,20.3h25.8c0.3,0,0.4,0,0.6-0.1c0.1-0.1,0.2-0.1,0.2-0.2c0.1-0.1,0.1-0.3,0.1-0.6v-8.9c0-0.3,0-0.4-0.1-0.6 c-0.1-0.1-0.1-0.2-0.2-0.2c-0.1-0.1-0.3-0.1-0.6-0.1H13.2c-0.3,0-0.4,0-0.6,0.1c-0.1,0.1-0.2,0.1-0.2,0.2c-0.1,0.1-0.1,0.3-0.1,0.6 v0.7H1.8c-0.3,0-0.4,0-0.6,0.1C1.1,11.4,1,11.5,1,11.6c-0.1,0.1-0.1,0.3-0.1,0.6v7.3c0,0.3,0,0.4,0.1,0.6c0.1,0.1,0.1,0.2,0.2,0.2 C1.3,20.3,1.5,20.3,1.8,20.3z"></path>
    <path class="st1 hardcore"
          d="M21.2,15.6l3.1-4.3c0.2-0.3,0.6-0.1,0.6,0.2l-0.3,2.4h2c0.3,0,0.4,0.3,0.3,0.5l-3.1,4.3 c-0.2,0.3-0.6,0.1-0.6-0.2l0.3-2.4h-2C21.2,16.1,21,15.8,21.2,15.6z"></path>
    <path class="st1 hardcore"
          d="M13.6,11.6c0-0.2,0.2-0.4,0.4-0.4h4.2c0.2,0,0.4,0.2,0.4,0.4v0.5c0,0.2-0.2,0.4-0.4,0.4H15v1.8h3.3 c0.2,0,0.4,0.2,0.4,0.4v3.7c0,0.2-0.2,0.4-0.4,0.4H14c-0.2,0-0.4-0.2-0.4-0.4V11.6z M15,15.7v1.8h2.3v-1.8H15z"></path>
    <path class="st1 hardcore"
          d="M8.2,12.7c0.2,0,0.4,0.2,0.4,0.4v3.1l1,0.9l1-0.9v-3.1c0-0.2,0.2-0.4,0.4-0.4h0.5c0.2,0,0.4,0.2,0.4,0.4v3.6 c0,0.1,0,0.2-0.1,0.3l-2,1.8c-0.2,0.2-0.4,0.2-0.6,0l-2-1.8c-0.1-0.1-0.1-0.2-0.1-0.3v-3.6c0-0.2,0.2-0.4,0.4-0.4H8.2z"></path>
    <path class="st1 hardcore"
          d="M3.1,12.7c0.2,0,0.4,0.2,0.4,0.4v4.3H6c0.2,0,0.4,0.2,0.4,0.4v0.5c0,0.2-0.2,0.4-0.4,0.4H2.6 c-0.2,0-0.4-0.2-0.4-0.4v-5.3c0-0.2,0.2-0.4,0.4-0.4H3.1z"></path>
</svg>