<svg version="1.1" xmlns="http://www.w3.org/2000/svg" xmlns:xlink="http://www.w3.org/1999/xlink" x="0px" y="0px"
     viewBox="0 0 30 30" style="enable-background:new 0 0 30 30;" xml:space="preserve"><style type="text/css">.st1.lv6{fill-rule:evenodd;clip-rule:evenodd;fill:#FFFFFF;}.st2.lv6{fill-rule:evenodd;clip-rule:evenodd;fill:#F04C49;}</style>
    <path class="st1 lv6" d="M19.9,11.1h-5.6v1.1H2.1v6.7h17.8v-6.7h0V11.1z"></path>
    <path class="st2 lv6"
          d="M14,10c-0.4,0-0.6,0.3-0.6,0.6V11H1.6C1.2,11,1,11.3,1,11.6v7.8C1,19.8,1.3,20,1.6,20h18.8 c0.4,0,0.6-0.3,0.6-0.6v-8.8c0.1-0.3-0.2-0.6-0.5-0.6H14z M19.8,12.3c0,0.2-0.2,0.4-0.4,0.4H16v1.6h3.4c0.2,0,0.4,0.2,0.4,0.4v3.7 c0,0.2-0.2,0.4-0.4,0.4H15c-0.2,0-0.4-0.2-0.4-0.4v-6.8c0-0.2,0.2-0.4,0.4-0.4h4.4c0.2,0,0.4,0.2,0.4,0.4V12.3z M12.6,16.7 c0.1-0.1,0.1-0.2,0.1-0.4v-0.1v-3.4c0-0.2-0.2-0.4-0.4-0.4h-0.6c-0.2,0-0.4,0.2-0.4,0.4v3.3L10,17.3l-1.2-1.2v-3.4 c0-0.2-0.2-0.4-0.4-0.4H7.8c-0.2,0-0.4,0.2-0.4,0.4v3.5v0.1c0,0.2,0,0.4,0.1,0.4l2,2c0.1,0.1,0.5,0.1,0.5,0.1s0.4,0,0.5-0.1 L12.6,16.7z M6.1,18.9H2.6c-0.2,0-0.4-0.2-0.4-0.4v-5.8c0-0.2,0.2-0.4,0.4-0.4h0.6c0.2,0,0.4,0.2,0.4,0.4v4.7h2.4 c0.2,0,0.4,0.2,0.4,0.4v0.6C6.5,18.7,6.3,18.9,6.1,18.9z M18.4,17.4H16v-1.7h2.4V17.4z"></path>
</svg>