<svg version="1.1" xmlns="http://www.w3.org/2000/svg" xmlns:xlink="http://www.w3.org/1999/xlink" x="0px"
     y="0px" viewBox="0 0 30 30" style="enable-background:new 0 0 30 30;" xml:space="preserve">
    <style type="text/css">.st1.lv1{fill-rule:evenodd;clip-rule:evenodd;fill:#FFFFFF;}.st2.lv1{fill-rule:evenodd;clip-rule:evenodd;fill:#C0C0C0;}</style>
    <path class="st1 lv1" d="M19.9,11.1h-5.6v1.1H2.1v6.7h17.8v-6.7h0V11.1z"/>
    <path class="st2 lv1"
          d="M13.4,10.6c0-0.3,0.2-0.6,0.6-0.6h6.5c0.3,0,0.6,0.3,0.5,0.6v8.2v0.7c0,0.3-0.2,0.6-0.6,0.6H1.6 C1.3,20,1,19.8,1,19.4v-7.8C1,11.3,1.2,11,1.6,11h11.8V10.6z M15.8,18.9h2.6c0.2,0,0.4-0.2,0.4-0.4v-0.6c0-0.2-0.2-0.4-0.4-0.4h-0.6 v-5.6c0-0.2-0.2-0.4-0.4-0.4h-1.4c-0.2,0-0.4,0.2-0.4,0.4v0.6c0,0.2,0.2,0.4,0.4,0.4h0.4v4.6h-0.6c-0.2,0-0.4,0.2-0.4,0.4v0.6 C15.3,18.7,15.5,18.9,15.8,18.9z M12.7,16.3v0.1c0,0.1-0.1,0.2-0.2,0.2c0,0,0,0-0.1,0.1l-2,2c-0.1,0.1-0.5,0.1-0.5,0.1 s-0.4,0-0.5-0.1l-2-2c-0.1,0-0.1-0.3-0.1-0.4v-0.1v-3.5c0-0.2,0.2-0.4,0.4-0.4h0.6c0.2,0,0.4,0.2,0.4,0.4v3.4l1.2,1.2l1.2-1.2v-3.3 c0-0.2,0.2-0.4,0.4-0.4h0.6c0.2,0,0.4,0.2,0.4,0.4V16.3L12.7,16.3z M2.6,18.9h3.4c0.2,0,0.4-0.2,0.4-0.4v-0.6c0-0.2-0.2-0.4-0.4-0.4 H3.7v-4.7c0-0.2-0.2-0.4-0.4-0.4H2.6c-0.2,0-0.4,0.2-0.4,0.4v5.8C2.2,18.7,2.4,18.9,2.6,18.9z"/>
</svg>