<svg width="24" height="24" viewBox="0 0 24 24" fill="none" xmlns="http://www.w3.org/2000/svg">
    <rect x="3" y="6" width="18" height="11.5" rx="2" fill="#FF6699"></rect>
    <path d="M5.7 8.36V12.79C5.7 13.72 5.96 14.43 6.49 14.93C6.99 15.4 7.72 15.64 8.67 15.64C9.61 15.64 10.34 15.4 10.86 14.92C11.38 14.43 11.64 13.72 11.64 12.79V8.36H10.47V12.81C10.47 13.43 10.32 13.88 10.04 14.18C9.75 14.47 9.29 14.62 8.67 14.62C8.04 14.62 7.58 14.47 7.3 14.18C7.01 13.88 6.87 13.43 6.87 12.81V8.36H5.7ZM13.0438 8.36V15.5H14.2138V12.76H15.9838C17.7238 12.76 18.5938 12.02 18.5938 10.55C18.5938 9.09 17.7238 8.36 16.0038 8.36H13.0438ZM14.2138 9.36H15.9138C16.4238 9.36 16.8038 9.45 17.0438 9.64C17.2838 9.82 17.4138 10.12 17.4138 10.55C17.4138 10.98 17.2938 11.29 17.0538 11.48C16.8138 11.66 16.4338 11.76 15.9138 11.76H14.2138V9.36Z"
          fill="white"></path>
</svg>