<svg version="1.1" xmlns="http://www.w3.org/2000/svg" xmlns:xlink="http://www.w3.org/1999/xlink" x="0px"
     y="0px" viewBox="0 0 30 30" style="enable-background:new 0 0 30 30;" xml:space="preserve">
    <style type="text/css">.st1.lv0{fill-rule:evenodd;clip-rule:evenodd;fill:#FFFFFF;}.st2.lv0{fill-rule:evenodd;clip-rule:evenodd;fill:#C0C0C0;}</style>
    <path class="st1 lv0" d="M20,11h-6v1H2v7.2h18V15V11z"/>
    <path class="st2 lv0"
          d="M20.5,10H14c-0.4,0-0.6,0.3-0.6,0.6V11H1.6C1.2,11,1,11.3,1,11.6v7.8C1,19.8,1.3,20,1.6,20h18.9 c0.4,0,0.6-0.3,0.6-0.6v-8.8C21,10.2,20.8,10,20.5,10z M19.9,18.2c0,0.4-0.3,0.6-0.6,0.6h-4.1c-0.4,0-0.6-0.3-0.6-0.6v-6.4 c0-0.4,0.3-0.6,0.6-0.6h4.1c0.4,0,0.6,0.3,0.6,0.6V18.2z M12.7,16.4v-0.1v-3.4c0-0.2-0.2-0.4-0.4-0.4h-0.6c-0.2,0-0.4,0.2-0.4,0.4 v3.3L10,17.3l-1.2-1.2v-3.4c0-0.2-0.2-0.4-0.4-0.4H7.8c-0.2,0-0.4,0.2-0.4,0.4v3.5v0.1c0,0.2,0,0.4,0.1,0.4l2,2 c0.1,0.1,0.5,0.1,0.5,0.1s0.4,0,0.5-0.1l2-2C12.5,16.6,12.7,16.5,12.7,16.4z M6.5,18.5c0,0.2-0.2,0.4-0.4,0.4H2.6 c-0.2,0-0.4-0.2-0.4-0.4v-5.8c0-0.2,0.2-0.4,0.4-0.4h0.6c0.2,0,0.4,0.2,0.4,0.4v4.7h2.4c0.2,0,0.4,0.2,0.4,0.4V18.5z M16.4,12.6h1.6 c0.2,0,0.4,0.2,0.4,0.4V17c0,0.2-0.2,0.4-0.4,0.4h-1.6c-0.2,0-0.4-0.2-0.4-0.4v-3.9C16,12.8,16.2,12.6,16.4,12.6z"/>
</svg>