<?xml version="1.0" encoding="utf-8"?>
<svg viewBox="0 0 568 354" xmlns="http://www.w3.org/2000/svg">
  <rect width="568" height="354" style="stroke: rgb(0, 0, 0); stroke-width: 0px; fill: rgb(42, 42, 42); visibility: hidden;"/>
  <path style="stroke-width: 0px; stroke: rgb(216, 216, 216); fill: rgb(168, 168, 168); fill-opacity: 0.25;" d="M 229.256 110.186 C 233.808 110.226 336.058 110.382 340.803 110.367 C 345.548 110.352 348.15 112.347 347.821 116.926 C 347.492 121.505 348.453 188.951 348.587 194.791 C 348.721 200.631 345.483 201.823 340.667 202.038 C 335.851 202.253 230.288 202.857 227.614 202.882 C 224.94 202.907 221.239 201.21 221.16 196.258 C 221.081 191.306 220.88 120.766 220.948 116.877 C 221.016 112.988 224.704 110.146 229.256 110.186 Z M 201.833 119.334 L 202.571 196.439 C 203.254 210.126 212.188 219.006 224.643 218.556 L 234.43 218.642 C 236.915 228.552 251.668 228.386 253.087 218.806 L 316.828 218.309 C 321.61 228.137 333.092 227.782 336.865 218.127 L 344.968 218.086 C 354.745 217.775 366.027 209.543 366.168 197.607 L 365.841 117.399 C 365.619 107.814 365.383 94.591 343.2 94.263 L 310.712 93.677 L 322.924 79.79 C 329.656 73.535 322.18 66.013 314.828 73.343 L 296.161 93.554 L 275.014 93.69 L 252.872 71.949 C 246.076 66.68 240.181 72.949 244.941 78.71 L 259.671 94.334 L 227.874 94.101 C 212.597 94.38 202.113 106.097 201.833 119.334 Z"/>
  <path style="stroke-width: 0px; stroke: rgb(216, 216, 216); stroke-opacity: 0.98; fill: rgb(168, 168, 168); fill-opacity: 0.25;" d="M 231.938 140.274 L 234.146 153.103 L 267.036 145.574 L 265.966 133.644 L 231.938 140.274 Z"/>
  <path style="stroke-width: 0px; stroke: rgb(216, 216, 216); stroke-opacity: 0.98; fill: rgb(168, 168, 168); fill-opacity: 0.25;" d="M 304.38 134.398 L 302.77 146.173 L 335.807 152.754 L 337.998 140.328 L 304.38 134.398 Z"/>
  <path style="stroke-width: 0px; stroke: rgb(216, 216, 216); stroke-opacity: 0.98; fill: rgb(168, 168, 168); fill-opacity: 0.25;" d="M 267.529 171.942 L 262.749 176.15 C 267.523 184.829 277.486 187.431 282.696 180.307 L 286.967 180.331 C 292.598 188.878 304.134 184.933 306.764 176.13 L 301.236 172.418 C 295.959 179.088 289.417 177.361 283.964 168.434 C 279.432 177.256 273.602 178.528 267.529 171.942 Z"/>
</svg>