<svg id="widget-people" viewBox="0 0 1024 1024" xmlns="http://www.w3.org/2000/svg" version="1.1">
    <path fill="#FFFFFF" d="M261.02 371.451c0-77.623 62.926-140.549 140.549-140.549s140.549 62.926 140.549 140.549S479.192 512 401.569 512 261.02 449.074 261.02 371.451zm140.549-200.784c-110.89 0-200.784 89.895-200.784 200.785 0 76.316 42.577 142.687 105.273 176.656-113.878 39.533-195.626 147.776-195.626 275.107 0 16.637 13.484 30.118 30.118 30.118s30.118-13.481 30.118-30.118c0-127.524 103.378-230.9 230.902-230.9s230.904 103.376 230.904 230.9c0 16.637 13.481 30.118 30.118 30.118 16.631 0 30.118-13.481 30.118-30.118 0-127.331-81.751-235.574-195.628-275.107 62.696-33.968 105.275-100.34 105.275-176.656 0-110.89-89.896-200.785-200.787-200.785zm271.057 381.49c0-16.634 13.487-30.118 30.118-30.118h.018c60.982-.01 110.417-49.448 110.417-110.432 0-60.907-49.309-110.297-110.188-110.431l-.247.001c-14.993 0-29.22 2.972-42.171 8.331-15.372 6.358-32.985-.948-39.346-16.318s.946-32.985 16.318-39.343c20.131-8.326 42.171-12.905 65.199-12.905v-.001c94.256 0 170.671 76.41 170.671 170.666 0 55.967-26.943 105.642-68.56 136.765 64.831 35.96 108.713 105.099 108.713 184.489 0 16.637-13.481 30.118-30.118 30.118-16.631 0-30.118-13.481-30.118-30.118 0-83.167-67.421-150.588-150.588-150.588-16.631 0-30.118-13.482-30.118-30.116z"/>
</svg>
