<svg id="widget-bookmark" fill="none" viewBox="0 0 15 15" xmlns="http://www.w3.org/2000/svg" version="1.1">
    <path fill-rule="evenodd" clip-rule="evenodd" d="M9.695 2.188c.902-.007 1.79.365 2.618 1.065.9.762 1.292 1.946 1.28 3.118-.011 1.175-.427 2.404-1.232 3.312-1.468 1.659-3.227 3.009-4.078 3.623a1.332 1.332 0 0 1-1.566-.002c-.848-.615-2.6-1.963-4.077-3.62-.806-.902-1.222-2.132-1.233-3.308-.012-1.173.38-2.36 1.28-3.123.805-.681 1.692-1.05 2.596-1.05.783 0 1.536.277 2.216.797.674-.52 1.416-.807 2.196-.812Zm.007.937c-.625.004-1.264.267-1.887.833a.469.469 0 0 1-.63 0c-.618-.561-1.267-.817-1.902-.817-.637 0-1.317.258-1.99.828-.63.533-.959 1.418-.949 2.398.01.977.359 1.98.995 2.694 1.413 1.582 3.102 2.885 3.928 3.484a.394.394 0 0 0 .468 0c.829-.598 2.523-1.9 3.924-3.483.639-.721.987-1.725.997-2.7.01-.978-.319-1.86-.949-2.393-.7-.593-1.379-.848-2.005-.844Z" fill="#9499A0"/>
</svg>
