<svg id="widget-coin" viewBox="0 0 1024 1024" xmlns="http://www.w3.org/2000/svg" version="1.1">
    <path fill="#FFFFFF" d="M512 64c247.424 0 448 200.576 448 448S759.424 960 512 960 64 759.424 64 512 264.576 64 512 64zm0 64c-212.077 0-384 171.923-384 384s171.923 384 384 384 384-171.923 384-384-171.923-384-384-384zm155.52 118.144c20.224 0 36.608 14.912 36.608 33.28 0 18.432-16.384 33.344-36.608 33.344H545.28v61.12c107.27 5.592 192.973 90.674 199.523 197.165l.029.595.384 11.904v44.48c.003.159.004.347.004.536 0 18.38-14.9 33.28-33.28 33.28-16.467 0-30.141-11.96-32.809-27.668l-.028-.196-.512-5.952v-44.48c-.282-71.949-53.31-131.428-122.408-141.79l-.792-.098-10.112-1.152v311.04c.003.159.004.347.004.536 0 18.38-14.9 33.28-33.28 33.28-16.467 0-30.141-11.96-32.809-27.668l-.028-.196-.512-6.016V440.512c-71.128 5.419-127.509 61.8-132.898 132.441l-.03.487-.384 10.112v44.48c.003.159.004.347.004.536 0 18.38-14.9 33.28-33.28 33.28-16.467 0-30.141-11.96-32.809-27.668l-.028-.196-.512-5.952v-44.48c.339-108.061 82.027-196.938 187.017-208.618l.951-.086 11.904-.96v-61.12H350.717c-20.16 0-36.48-14.912-36.48-33.28 0-18.432 16.32-33.28 36.48-33.28h316.8z"/>
</svg>
