<svg id="header-download" fill="none" viewBox="0 0 20 20" xmlns="http://www.w3.org/2000/svg" version="1.1">
    <path d="M16.703 10.764c.716 0 1.297.548 1.297 1.223v4.79c0 .675-.58 1.223-1.297 1.223h-4.595c-.716 0-1.297-.547-1.297-1.223v-4.79c0-.675.58-1.223 1.297-1.223h4.595ZM2.81 13.465c.448 0 .81.342.81.764v2.854c0 .422-.362.764-.81.764-.448 0-.811-.342-.811-.764v-2.854c0-.422.363-.764.81-.764Zm5.621 0c.448 0 .811.342.811.764v2.854c0 .422-.363.764-.81.764-.448 0-.811-.342-.811-.764v-2.854c0-.422.363-.764.81-.764Zm-2.81.662c.447 0 .81.343.81.765v1.528c0 .422-.363.765-.81.765-.448 0-.811-.342-.811-.765v-1.528c0-.422.363-.765.81-.765Zm10.756-1.834h-3.946v4.178h3.946v-4.178Zm-7.946-1.529c.448 0 .811.343.811.765s-.363.764-.81.764H2.81c-.448 0-.811-.342-.811-.764s.363-.765.81-.765h5.622ZM7.892 2c.716 0 1.297.548 1.297 1.223v4.79c0 .675-.58 1.223-1.297 1.223H3.297C2.581 9.236 2 8.688 2 8.013v-4.79C2 2.548 2.58 2 3.297 2h4.595Zm8.81 0C17.42 2 18 2.548 18 3.223v4.79c0 .675-.58 1.223-1.297 1.223h-4.595c-.716 0-1.297-.548-1.297-1.223v-4.79c0-.675.58-1.223 1.297-1.223h4.595ZM7.569 3.529H3.622v4.178h3.946V3.529Zm8.81 0h-3.946v4.178h3.946V3.529Z" fill="#000000"/>
</svg>
