<svg xmlns="http://www.w3.org/2000/svg" version="1.1" id="widget-video-danmaku" fill="none" viewBox="0 0 16 16">
    <path fill-rule="evenodd" clip-rule="evenodd" d="M8 3.25c-1.714 0-3.208.088-4.258.174A1.45 1.45 0 0 0 2.4 4.746C2.323 5.607 2.25 6.75 2.25 8s.073 2.393.15 3.254a1.45 1.45 0 0 0 1.342 1.322c1.05.086 2.544.174 4.258.174s3.208-.088 4.258-.174a1.45 1.45 0 0 0 1.341-1.321c.078-.862.151-2.004.151-3.255s-.073-2.393-.15-3.255a1.45 1.45 0 0 0-1.342-1.321A52.956 52.956 0 0 0 8 3.25Zm-4.34-.823A53.955 53.955 0 0 1 8 2.25c1.747 0 3.27.09 4.34.177a2.45 2.45 0 0 1 2.255 2.228c.08.883.155 2.057.155 3.345 0 1.288-.075 2.462-.155 3.345a2.45 2.45 0 0 1-2.255 2.228c-1.07.087-2.593.177-4.34.177-1.747 0-3.27-.09-4.34-.177a2.45 2.45 0 0 1-2.255-2.229A37.662 37.662 0 0 1 1.25 8c0-1.288.075-2.461.155-3.344A2.45 2.45 0 0 1 3.66 2.427ZM4 6.75a.5.5 0 0 1 .5-.5h.25a.5.5 0 0 1 0 1H4.5a.5.5 0 0 1-.5-.5Zm2 0a.5.5 0 0 1 .5-.5h4a.5.5 0 0 1 0 1h-4a.5.5 0 0 1-.5-.5Zm-.5 2a.5.5 0 0 0 0 1h.25a.5.5 0 0 0 0-1H5.5Zm2 0a.5.5 0 0 0 0 1h4a.5.5 0 0 0 0-1h-4Z" fill="#9499A0"/>
</svg>