<svg id="widget-favorite" viewBox="0 0 1024 1024" xmlns="http://www.w3.org/2000/svg" version="1.1">
    <path fill="#000000" d="M722.88 311.04c-36.771-6.091-67.347-28.365-84.62-59.115l-.308-.597L565.44 99.712c-20.736-47.616-86.144-47.616-109.888 0l-65.28 142.848c-17.92 35.712-50.56 62.528-89.152 68.48l-154.496 23.808c-47.488 5.952-68.288 65.472-32.64 101.184l115.84 119.04c26.688 26.816 38.592 65.536 32.64 104.192L235.776 825.92c-8.96 50.624 44.544 86.4 89.088 62.528l130.688-71.424c16.599-9.818 36.582-15.619 57.92-15.619s41.321 5.801 58.457 15.913l130.151 71.131c44.608 23.808 95.104-11.904 89.152-62.528l-29.696-166.656c-1.052-5.987-1.654-12.88-1.654-19.914 0-32.801 13.084-62.547 34.318-84.302l115.816-119.016c35.648-35.712 14.848-95.232-32.64-101.184L722.88 311.041zm25.472 199.424c-40.704 40.768-59.2 99.904-50.048 158.592l28.48 159.936-124.672-68.16c-25.433-14.826-55.984-23.578-88.578-23.578-28.767 0-55.942 6.817-79.997 18.925l1.023-.467-134.528 73.344 25.6-159.68c9.152-59.072-9.28-118.208-50.56-159.488l-110.08-113.152 145.856-22.4c59.008-9.152 109.376-48.512 136.64-103.168l63.104-137.92 65.472 136.96c22.08 53.248 76.352 94.72 137.088 104.064L858.944 396.8 748.352 510.464z"/>
</svg>
