<svg id="widget-agree" fill="none" viewBox="0 0 17 16" xmlns="http://www.w3.org/2000/svg" version="1.1">
    <path fill-rule="evenodd" clip-rule="evenodd" d="M9.78 2.335a.553.553 0 0 0-.452.196c-.176.206-.248.376-.336.626l-.03.088c-.088.253-.2.576-.433.988-.396.702-.785 1.163-1.346 1.516-.361.227-.682.413-1.016.51v6.408h5.178c.841 0 1.574-.573 1.778-1.39l1.03-4.118a.667.667 0 0 0-.647-.828h-2.85a.5.5 0 0 1-.454-.71l.003-.005.009-.021a5.588 5.588 0 0 0 .156-.404c.091-.269.184-.606.213-.926.051-.564.063-.923-.166-1.357-.245-.465-.495-.56-.636-.573Zm1.596 2.996h2.13a1.667 1.667 0 0 1 1.617 2.07l-1.03 4.12a2.833 2.833 0 0 1-2.748 2.146H4A2.167 2.167 0 0 1 1.833 11.5V7.497c0-1.196.97-2.166 2.167-2.166h1.667c.215 0 .44-.086.984-.428.376-.237.663-.551 1.008-1.162.186-.33.272-.576.358-.824l.032-.092c.104-.295.225-.6.52-.944a1.552 1.552 0 0 1 1.303-.542c.565.052 1.072.424 1.43 1.103.375.712.33 1.331.277 1.913-.032.351-.117.696-.204.976Zm-6.21 7.336V6.33H4c-.644 0-1.167.522-1.167 1.166V11.5c0 .644.523 1.167 1.167 1.167h1.167Z" fill="#FFFFFF"/>
</svg>
