<svg width="16" height="16" xmlns="http://www.w3.org/2000/svg" fill="none">
    <g>
        <path stroke="null" fill="#fd676f" d="m0.15109,8.03126l0,0c0,-4.35967 3.49778,-7.8939 7.81249,-7.8939l0,0c2.072,0 4.05915,0.83168 5.52423,2.31209c1.46513,1.48042 2.28825,3.48824 2.28825,5.58182l0,0c0,4.35973 -3.49775,7.89395 -7.81248,7.89395l0,0c-4.31471,0 -7.81249,-3.53422 -7.81249,-7.89395l0,0zm12.6154,3.53137l0,0c1.72004,-2.38854 1.46437,-5.68655 -0.60282,-7.77523c-2.06718,-2.08872 -5.33114,-2.34705 -7.69494,-0.60904l8.29776,8.38427l0,0zm-9.60578,-7.06263c-1.72007,2.3885 -1.4644,5.68648 0.60278,7.77517c2.06715,2.08871 5.33113,2.34705 7.69491,0.60908l-8.2977,-8.38424l0,0l0.00001,-0.00001z"/>
    </g>
</svg>