<svg xmlns="http://www.w3.org/2000/svg" version="1.1" id="widget-up" viewBox="0 0 13.334 10.666">
    <path fill-rule="evenodd" clip-rule="evenodd" d="M0 2.5A2.5 2.5 0 0 1 2.5 0h8.334a2.5 2.5 0 0 1 2.5 2.5v5.666a2.5 2.5 0 0 1-2.5 2.5H2.5a2.5 2.5 0 0 1-2.5-2.5ZM2.5 1A1.5 1.5 0 0 0 1 2.5v5.666a1.5 1.5 0 0 0 1.5 1.5h8.334a1.5 1.5 0 0 0 1.5-1.5V2.5a1.5 1.5 0 0 0-1.5-1.5zM3 2.833a.5.5 0 0 1 .5.5v2.5a1 1 0 1 0 2 0v-2.5a.5.5 0 0 1 1 0v2.5a2 2 0 0 1-4 0v-2.5a.5.5 0 0 1 .5-.5Zm4.667 0a.5.5 0 0 0-.5.5v4a.5.5 0 1 0 1 0v-.667H9.25a1.917 1.917 0 1 0 0-3.833zM9.25 5.666H8.167V3.833H9.25a.917.917 0 1 1 0 1.833z" fill="#9499A0"/>
</svg>